<?xml version="1.0" encoding="UTF-8"?><svg id="Ebene_1" xmlns="http://www.w3.org/2000/svg" viewBox="0 0 384 375.63"><defs><style>.cls-1{fill:#805059;}.cls-2{fill:#faee61;}.cls-3{fill:#c17f70;}.cls-4{fill:#a66a75;}.cls-5{fill:#363e59;}.cls-6{fill:#61d9f9;}.cls-7{fill:#495377;}.cls-8{fill:#d99d8f;}.cls-9{fill:#c98e99;}.cls-10{fill:#081226;}.cls-11{fill:#18afcd;}.cls-12{fill:#0cb59d;}.cls-13{fill:#976b73;}</style></defs><path class="cls-10" d="M0,186.31c0-4.75,0-9.5,0-14.25,.27-.75,.67-1.48,.8-2.26,1.39-8.24,2.21-16.61,4.17-24.71C17.03,95.34,44.67,56.43,87.83,28.98,126.88,4.14,169.75-4.39,215.46,2.08c33.07,4.68,62.72,17.78,88.89,38.56,25.24,20.04,44.15,44.94,56.64,74.69-1.35-.22-2.71-.36-4.04-.66-21.73-4.88-43.46-9.76-65.17-14.7-9.7-2.21-19.37-4.54-29.06-6.81-2.46-7.47-4.92-14.95-7.38-22.42-2.01-6.16-3.81-12.4-6.06-18.47-8.68-23.34-37.55-29.84-55.51-12.56-1.98,1.9-3.81,3.97-5.87,5.77-8.07,7.05-17.45,10.17-28.05,8.13-4.33-.83-8.53-2.67-12.62-4.43-5.56-2.39-11.13-4.42-17.32-3.77-1.86,.1-3.77-.07-5.56,.34-17.58,3.98-28.36,18.48-27.45,36.74,.27,5.36,.47,10.72,.7,16.08,.23,7.92,.46,15.83,.69,23.75-20.63,13.29-41.29,26.52-61.86,39.88-12.2,7.93-24.27,16.06-36.4,24.11Z"/><path class="cls-7" d="M262.71,93.16c9.69,2.27,19.36,4.6,29.06,6.81,21.72,4.94,43.45,9.81,65.17,14.7,1.33,.3,2.69,.44,4.04,.66,2.64,.68,5.24,1.58,7.92,1.99,7.39,1.12,12.71,4.66,15.1,11.99v6c-2.29,6.05-6.41,10.02-12.9,11.27-.75,.05-1.51,.02-2.24,.15-34.18,6.02-68.35,12.04-102.52,18.07-33.31,5.89-66.62,11.8-99.94,17.68-40.69,7.18-81.38,14.37-122.08,21.5-5.99,1.05-12.03,1.78-18.05,2.67,1.49-2.09,2.62-4.62,4.54-6.2,31.18-25.73,62.47-51.32,93.7-76.99,2.37-1.95,4.48-4.23,6.71-6.35,0,0-.02,.15-.02,.15,.44-.2,.88-.39,1.33-.59,.36-.19,.72-.38,1.08-.57,11.42-1.96,22.84-3.9,34.25-5.9,23.56-4.13,47.11-8.26,70.66-12.45,8.08-1.44,16.14-3.05,24.2-4.59Z"/><path class="cls-5" d="M.91,205.2c-.3-.55-.6-1.09-.91-1.64,0-5.75,0-11.5,0-17.25,12.13-8.04,24.19-16.18,36.4-24.11,20.58-13.36,41.24-26.6,61.86-39.88,2.2-.28,4.4-.51,6.59-.86,8.79-1.43,17.57-2.89,26.36-4.34-2.23,2.13-4.33,4.4-6.71,6.35-31.23,25.67-62.52,51.26-93.7,76.99-1.91,1.58-3.04,4.11-4.54,6.2,0,0,.04-.1,.04-.1-.22,.2-.44,.4-.66,.6-3.04,.61-6.1,1.11-9.1,1.85-5.91,1.46-11.1,.23-15.64-3.81Z"/><path class="cls-7" d="M129.88,45.41c6.19-.65,11.76,1.38,17.32,3.77,4.09,1.76,8.28,3.6,12.62,4.43,10.6,2.04,19.98-1.07,28.05-8.13,2.06-1.8,3.9-3.87,5.87-5.77,17.96-17.27,46.84-10.78,55.51,12.56,2.26,6.07,4.06,12.31,6.06,18.47-1.35,.26-2.69,.53-4.04,.77-33.38,5.87-66.75,11.76-100.14,17.59-7.11,1.24-14.24,2.31-21.37,3.46-1.25-8.09-2.67-16.16-3.7-24.28-1.01-7.95,.67-15.56,3.81-22.88Z"/><path class="cls-4" d="M129.77,92.56c7.12-1.15,14.26-2.22,21.37-3.46,33.38-5.84,66.76-11.72,100.14-17.59,1.35-.24,2.69-.51,4.04-.77,2.46,7.47,4.92,14.95,7.38,22.42-8.07,1.54-16.12,3.15-24.2,4.59-23.55,4.19-47.1,8.33-70.66,12.45-11.41,2-22.83,3.93-34.25,5.9-.28-1.06-.66-2.1-.84-3.17-1.08-6.67-2.12-13.35-3.16-20.03,.05-.12,.11-.23,.18-.34Z"/><path class="cls-5" d="M129.88,45.41c-3.14,7.32-4.82,14.93-3.81,22.88,1.03,8.12,2.45,16.19,3.7,24.28-.07,.11-.13,.22-.18,.34-2.43,.39-4.87,.75-7.29,1.18-8.25,1.48-16.49,2.99-24.74,4.49-.23-5.36-.43-10.72-.7-16.08-.91-18.26,9.87-32.77,27.45-36.74,1.79-.4,3.71-.24,5.56-.34Z"/><path class="cls-1" d="M97.57,98.57c8.25-1.5,16.49-3.01,24.74-4.49,2.42-.43,4.86-.79,7.29-1.18,1.05,6.68,2.08,13.36,3.16,20.03,.17,1.07,.55,2.11,.84,3.17-.36,.19-.72,.38-1.08,.57-.44,.2-.88,.39-1.33,.59l.02-.15c-8.79,1.45-17.57,2.92-26.36,4.34-2.19,.35-4.39,.58-6.59,.86-.23-7.92-.46-15.83-.69-23.75Z"/><path class="cls-10" d="M.91,205.2c4.54,4.03,9.73,5.27,15.64,3.81,3-.74,6.07-1.24,9.1-1.85,.22-.2,.44-.4,.66-.6,0,0-.04,.1-.04,.1,6.02-.88,12.06-1.62,18.05-2.67,40.7-7.13,81.39-14.32,122.08-21.5,33.31-5.88,66.62-11.8,99.94-17.68,34.17-6.04,68.35-12.06,102.52-18.07,.73-.13,1.49-.1,2.24-.15,2.74,12.98,4.39,26.1,4.48,39.37,.17,25.38-4.46,49.87-14.12,73.37-.47,1.15-1.06,2.24-1.6,3.36-.62-4.07-1.24-8.14-1.86-12.2-.14-.86-.21-1.74-.42-2.58-10.08-39.99-57.1-58.75-91.97-36.72-8.7,5.5-15.59,12.75-20.87,21.76-7.84-2.26-15.6-2.28-23.36-.03-.86-1.3-1.61-2.43-2.36-3.56-14.1-21.32-39.96-31.98-64.6-25.91-25.74,6.33-41.18,23.03-46.95,48.81-1.57,7.43-1.48,14.93-.03,22.3,5.98,30.42,33.45,53.72,67.96,49.49,23.76-2.91,40.53-16.33,49.61-38.61,4.7-11.54,6.01-23.56,2.48-35.79-.05-.73-.1-1.47-.18-2.62h11.37c-.16,1.55-.27,2.54-.37,3.52-2.13,7.58-1.81,15.24-.63,22.91,4.73,30.9,34.99,56.19,70.62,50.17,3.52-.59,7-1.47,10.5-2.21-.7,.97-1.28,2.08-2.13,2.88-26.84,25.1-58.2,41.42-94.4,48.05-37.87,6.93-74.64,2.96-109.89-12.65-42.04-18.62-73.18-48.81-93.55-89.99C8.78,249.37,2.82,227.83,.91,205.2Z"/><path class="cls-11" d="M131.19,117.26c.44-.2,.88-.39,1.33-.59-.44,.2-.88,.39-1.33,.59Z"/><path class="cls-3" d="M358,250.48c.62,4.07,1.24,8.14,1.86,12.2-.93,5.88-1.29,11.92-2.89,17.6-4.99,17.63-16.19,30.26-32.54,38.39-1.87,.93-3.76,1.83-5.64,2.75-3.5,.74-6.97,1.62-10.5,2.21-35.63,6.01-65.89-19.27-70.62-50.17-1.17-7.67-1.5-15.33,.63-22.91,1.55,8.44,5.07,16.06,10.15,22.88,1.83,2.46,3.05,5.82,6.67,6.57l-.08-.02c.25,.53,.5,1.06,.75,1.59,.45,.74,.94,1.45,1.33,2.21,9.85,19.39,31.52,29.39,52.51,23.87,11.62-3.06,20.98-9.51,27.16-20.08,0,0-.04,.04-.04,.04l.62-.82c1.08-1.75,2.16-3.51,3.23-5.26,.18-.32,.37-.64,.55-.95,0,0-.07,0-.07,0,.81-.55,1.77-.96,2.39-1.67,7.23-8.25,12.46-17.54,14.54-28.43Z"/><path class="cls-6" d="M26.31,206.55c-.22,.2-.44,.4-.66,.6,.22-.2,.44-.4,.66-.6Z"/><path class="cls-8" d="M255.12,279.99c-3.62-.75-4.84-4.12-6.67-6.57-5.08-6.82-8.6-14.44-10.15-22.88,.1-.98,.21-1.97,.37-3.52h-11.37c.08,1.15,.13,1.88,.18,2.62-.27,1.83-.35,3.72-.86,5.48-2.28,7.96-6.24,15.08-11.46,21.47-.92,1.13-2.54,1.69-3.84,2.51,2.41-7.69,3.2-15.49,1.96-23.78-4.21,.51-7.47-.83-9-4.67-1.68-4.2,.39-7.43,3.43-10.04-.12-.44-.13-.71-.24-.91-8.5-15.14-27.22-24.68-44.47-22.45-6.53,.85-12.93,2.39-18.38,6.47-.28,.27-.56,.53-.84,.8,0,0,.19-.07,.19-.07l-.07-.19c-.32,.25-.63,.5-.95,.74l-.07-.19-.19,.06c-10.43,6.64-16.79,16.18-19.64,28.07-2.28,9.5-1.12,18.83,2.17,27.94-1-.7-2.21-1.23-2.98-2.13-5.97-7.01-10.54-14.83-13.23-23.69-.3-1-1.03-1.88-1.55-2.81,5.77-25.78,21.21-42.48,46.95-48.81,24.64-6.06,50.5,4.6,64.6,25.91,.75,1.13,1.5,2.26,2.36,3.56,7.76-2.25,15.52-2.23,23.36,.03,5.28-9.01,12.17-16.26,20.87-21.76,34.87-22.04,81.89-3.28,91.97,36.72,.21,.84,.29,1.72,.42,2.58-2.08,10.89-7.3,20.18-14.54,28.43-.62,.71-1.59,1.12-2.39,1.67,.37-1.31,.7-2.63,1.11-3.93,2.49-7.9,2.83-15.89,.84-23.92-5.61-22.62-25.42-37.18-48.67-35.52-7.1,.5-13.94,2.39-19.84,6.73-.28,.21-.55,.42-.83,.64l.04-.05c-6.81,3.77-11.73,9.31-15.49,16.06,3.03,2.83,5.09,5.68,3.59,9.77-1.52,4.16-4.95,5.2-8.85,5.19-.15,.6-.26,.95-.33,1.31-1.47,7.96,.19,15.59,2.45,23.16Z"/><path class="cls-3" d="M107.46,252.24c.53,.93,1.25,1.81,1.55,2.81,2.69,8.87,7.25,16.68,13.23,23.69,.77,.9,1.97,1.43,2.98,2.13,.43,.75,.91,1.48,1.29,2.26,9.73,19.68,31.04,29.86,52.26,24.61,11.83-2.93,21.36-9.36,27.62-20.11l-.12,.03c.25-.29,.5-.57,.75-.86,1.22-2,2.45-4,3.67-6,.22-.56,.45-1.12,.67-1.68l-.04-.03c1.3-.82,2.92-1.38,3.84-2.51,5.22-6.39,9.18-13.5,11.46-21.47,.51-1.76,.58-3.65,.86-5.48,3.54,12.23,2.23,24.25-2.48,35.79-9.08,22.28-25.86,35.69-49.61,38.61-34.52,4.23-61.98-19.07-67.96-49.49-1.45-7.38-1.54-14.87,.03-22.3Z"/><path class="cls-9" d="M274.52,223.92c5.9-4.34,12.74-6.23,19.84-6.73,23.25-1.65,43.06,12.91,48.67,35.52,1.99,8.03,1.65,16.02-.84,23.92-.41,1.3-.74,2.62-1.11,3.93,0,0,.08,0,.07,0-.18,.32-.37,.64-.55,.95-1.08,1.75-2.16,3.51-3.23,5.26-.21,.27-.41,.54-.62,.82,0,0,.04-.04,.04-.04-1.3,.37-2.66,.63-3.91,1.14-8.92,3.67-18.16,4.56-27.52,2.52-23.58-5.14-40.03-27.63-35.49-53.1,.82-4.62,2.55-9.07,3.87-13.61l-.04,.05c.28-.21,.55-.42,.83-.64Z"/><path class="cls-13" d="M273.74,224.51c-1.31,4.53-3.04,8.99-3.87,13.61-4.54,25.47,11.91,47.96,35.49,53.1,9.35,2.04,18.6,1.16,27.52-2.52,1.25-.51,2.6-.77,3.91-1.14-6.18,10.57-15.54,17.03-27.16,20.08-20.99,5.52-42.66-4.48-52.51-23.87-.39-.77-.88-1.48-1.33-2.21-.25-.53-.5-1.06-.75-1.59l.08,.02c-2.26-7.57-3.92-15.2-2.45-23.16,.07-.36,.18-.71,.33-1.31,3.9,.01,7.32-1.03,8.85-5.19,1.49-4.08-.57-6.94-3.59-9.77,3.76-6.76,8.68-12.29,15.49-16.06Z"/><path class="cls-2" d="M255.04,279.97c.25,.53,.5,1.06,.75,1.59-.25-.53-.5-1.06-.75-1.59Z"/><path class="cls-2" d="M340.6,281.53c.18-.32,.37-.64,.55-.95-.18,.32-.37,.64-.55,.95Z"/><path class="cls-12" d="M336.75,287.6c.21-.27,.41-.54,.62-.82-.21,.27-.41,.54-.62,.82Z"/><path class="cls-9" d="M210.7,280.8c-1.22,2-2.45,4-3.67,6-.25,.29-.5,.57-.75,.86l.12-.03c-1.31,.34-2.68,.55-3.92,1.05-8.8,3.6-17.88,4.52-27.13,2.52-16.69-3.62-28.02-13.77-33.95-29.6-4.14-11.04-3.62-22.24,.96-33.19,.44-1.05,.24-2.36,.33-3.55l.19-.06,.07,.19c.32-.25,.63-.5,.95-.74l.07,.19s-.19,.07-.19,.07c.28-.27,.56-.53,.84-.8,5.45-4.08,11.84-5.62,18.38-6.47,17.25-2.23,35.97,7.31,44.47,22.45,.12,.2,.13,.47,.24,.91-3.03,2.61-5.11,5.84-3.43,10.04,1.54,3.85,4.8,5.19,9,4.67,1.24,8.28,.45,16.09-1.96,23.78l.04,.03c-.22,.56-.45,1.12-.67,1.68Z"/><path class="cls-13" d="M142.69,224.87c-.09,1.19,.11,2.5-.33,3.55-4.59,10.96-5.1,22.15-.96,33.19,5.94,15.83,17.26,25.98,33.95,29.6,9.25,2.01,18.34,1.08,27.13-2.52,1.24-.51,2.61-.71,3.92-1.05-6.26,10.75-15.79,17.18-27.62,20.11-21.21,5.25-42.53-4.93-52.26-24.61-.38-.78-.86-1.51-1.29-2.26-3.29-9.12-4.46-18.44-2.17-27.94,2.86-11.89,9.21-21.43,19.64-28.07Z"/><path class="cls-12" d="M144.62,223.71c-.28,.27-.56,.53-.84,.8,.28-.27,.56-.53,.84-.8Z"/><path class="cls-12" d="M274.52,223.92c-.28,.21-.55,.42-.83,.64,.28-.21,.55-.42,.83-.64Z"/><path class="cls-12" d="M143.9,224.25c-.32,.25-.63,.5-.95,.74,.32-.25,.63-.5,.95-.74Z"/><path class="cls-2" d="M210.7,280.8c.22-.56,.45-1.12,.67-1.68-.22,.56-.45,1.12-.67,1.68Z"/><path class="cls-12" d="M206.27,287.66c.25-.29,.5-.57,.75-.86-.25,.29-.5,.57-.75,.86Z"/></svg>