<?xml version="1.0" encoding="UTF-8"?><svg id="Ebene_1" xmlns="http://www.w3.org/2000/svg" viewBox="0 0 383.13 374.63"><defs><style>.cls-1{fill:#805059;}.cls-2{fill:#a66a75;}.cls-3{fill:#d99d8f;}.cls-4{fill:#c98e99;}.cls-5{fill:#4f5c88;}</style></defs><path class="cls-2" d="M0,89.36c4.23-7.14,8.47-14.27,12.67-21.42,2.96-5.05,5.96-10.07,8.76-15.21,2.85-5.23,7.03-7.88,13.05-7.56,2.49,.13,4.98,.1,7.47,.14-.1,.36-.11,.78-.31,1.06-8.95,12.16-12.66,25.65-10.2,40.65,2.21,13.44,8.69,24.48,19.34,32.92,10.53,8.34,22.6,12.19,36.08,11.36-2.95,7.25-8.21,10.15-16.12,9.86-12.32-.45-24.66-.23-36.99-.07-5.65,.07-9.41-2.54-12.15-7.16-1.14-1.92-2.35-3.78-3.53-5.67-3.7-7.67-8.4-14.78-12.52-22.21-1.84-3.32-3.69-6.63-5.54-9.95,0-2.24,0-4.49,0-6.73Z"/><path class="cls-5" d="M18.06,128.25c1.18,1.89,2.4,3.76,3.53,5.67,2.74,4.62,6.5,7.23,12.15,7.16,12.33-.15,24.68-.38,36.99,.07,7.92,.29,13.17-2.61,16.12-9.86,.93-1.35,1.86-2.7,2.79-4.04,1.05,.35,2.2,.53,3.15,1.07,8.71,5,17.36,10.08,26.07,15.09,14.29,8.22,28.61,16.39,42.91,24.58-.64,1.34-1.2,2.72-1.93,4.01-4.94,8.61-10.18,17.04-14.64,25.92-10.96-.01-21.92-.05-32.87-.03-13.57,.03-27.14,.12-40.71,.18-3.15-3.28-4.68-7.58-7.11-11.32-1.7-2.62-3.7-4.05-7.01-3.94-5.84,.2-11.7,.14-17.54,.02-3.24-.07-5.36,1.24-6.9,4.07-2.67,4.91-5.42,9.79-8.4,14.51-1.99,3.14-1.89,5.97-.06,9.05,3.04,5.13,6,10.31,8.94,15.5,1.39,2.45,3.48,3.34,6.2,3.32,5.85-.05,11.7-.11,17.54,.02,3.36,.07,5.59-1.29,7.34-4.11,2.42-3.89,4.18-8.18,7.11-11.76,16.14,.04,32.29,.1,48.43,.1,8.44,0,16.88-.13,25.32-.2,1.48,2.56,3,5.1,4.42,7.7,3.83,7.02,8.41,13.63,11.67,20.97-1.14,1.12-2.39,2.16-3.41,3.39-4.38,5.22-8.68,10.5-13.06,15.72-1.18,1.41-3.14,2.74-1.88,4.74,1.09,1.74,3.14,.77,4.79,.51,8.55-1.3,16.95-3.49,25.6-4.16,4.8,8.2,9.6,16.41,14.4,24.61-2.29,5.26-5.77,9.84-8.53,14.83-4.08,7.38-9.14,14.18-12.73,21.85-.71,.12-1.42,.24-2.13,.35-9.2-.07-18.41-.06-27.61-.23-5.67-.1-9.6,2.16-12.37,7.21-4.36,7.95-9.13,15.67-13.72,23.49-48.76-25.52-80.93-64.73-95.83-117.65-9.97-35.39-8.9-70.84,2.08-105.96,.26-.83,.59-1.63,.89-2.45Z"/><path class="cls-5" d="M74.18,45.07C95.96,26.15,120.84,12.94,148.8,6.07c53.63-13.19,103.85-4.88,150.37,25.09,.62,.4,1.17,.9,1.76,1.35-1.91,3.47-3.58,7.11-5.78,10.38-3.77,5.62-2.97,10.67,.36,16.27,5,8.41,10.35,16.66,14.43,25.59-6.29,10.47-12.58,20.93-18.87,31.4-3.34-.91-6.73-1.37-10.21-1.33-5.8,.07-11.6-.06-17.4-.11-4.74-13.22-9.48-26.44-14.2-39.67-.44-1.22-.89-2.53-2.34-2.55-1.44-.02-2.03,1.3-2.47,2.48-1.74,4.66-3.52,9.31-5.12,14.01-2.92,8.58-6.65,16.89-8.95,25.69-2.43,.19-4.85,.38-7.28,.56-5.32-.73-10.67-.35-16-.29-9.39,.12-16.66,4.07-21.5,12.36-5.45,9.32-10.45,18.9-16.42,27.91-.78-.6-1.51-1.29-2.36-1.78-14.91-8.63-29.86-17.2-44.75-25.86-8.13-4.73-16.54-9-24.28-14.39,2.23-4,4.32-8.09,6.73-11.99,3.36-5.43,3.27-10.59,0-16.07-6.53-10.98-12.86-22.08-19.21-33.16-2.49-4.35-6.13-6.69-11.14-6.88Z"/><path class="cls-5" d="M356.17,90.83c12.11,19.45,20.05,40.54,23.89,63.06,8.97,52.53-1.66,100.9-33.17,143.94-30.11,41.13-70.79,65.89-121.17,74.45-10.84,1.84-21.75,2.69-32.74,2.22,.5-1.02,.99-2.04,1.49-3.06,3.56-4.63,3.31-9.24,.4-14.17-5.23-8.88-10.21-17.91-15.29-26.87,.82-.42,1.21-1.19,1.66-1.94,6.68-11.18,13.38-22.35,20.07-33.52,8.94,.1,17.88,.21,26.82,.31,5.31,14.72,10.62,29.45,15.95,44.16,.5,1.39,.99,3.19,2.67,3.28,2.08,.11,2.26-1.96,2.8-3.43,2.79-7.58,5.73-15.11,8.29-22.76,2.36-7.06,5.59-13.82,7.25-21.12,1.36-.07,2.72-.2,4.07-.21,4.46-.03,8.93-.04,13.39,0,12.6,.09,19.57-7.4,24.29-17.96,2.69-4.29,5.37-8.58,8.06-12.87,12.18,2.22,24.37,4.43,36.54,6.68,1.34,.25,2.45,.1,3.33-1.04,.99-1.3-.06-2.04-.75-2.87-4.93-5.91-9.76-11.91-14.83-17.7-3.08-3.51-5.34-7.79-9.44-10.38,3.78-8.41,8.93-16.05,13.47-24.04,7.25-2.56,14.52-5.05,21.73-7.73,2.33-.87,2.5-3.11,.22-4.06-7.09-2.96-14.2-5.91-21.73-7.62-3.53-6.19-7.05-12.38-10.58-18.57,3.46-4.07,6.92-8.14,10.37-12.21,5.61-6.64,11.24-13.26,16.81-19.94,.75-.9,1.78-1.93,.79-3.31-.84-1.16-1.89-1.21-3.29-.93-5.95,1.18-11.91,2.32-17.91,3.22-7.96,1.2-15.78,3.21-23.82,3.87-4.28-7.45-8.56-14.9-12.84-22.35,4.49-5.92,7.87-12.53,11.67-18.88,3.03-5.06,6.62-9.83,8.79-15.39,10.91-.08,21.83-.17,32.74-.25Z"/><path class="cls-4" d="M74.18,45.07c5.01,.19,8.65,2.53,11.14,6.88,6.35,11.08,12.68,22.18,19.21,33.16,3.26,5.48,3.35,10.64,0,16.07-2.41,3.89-4.5,7.99-6.73,11.99-2.96,4.55-5.78,9.19-8.15,14.09-.93,1.35-1.86,2.7-2.79,4.04-13.48,.83-25.55-3.02-36.08-11.36-10.65-8.44-17.13-19.47-19.34-32.92-2.47-15,1.24-28.49,10.2-40.65,.21-.28,.21-.7,.31-1.06,10.75-.08,21.49-.16,32.24-.24Z"/><path class="cls-2" d="M356.17,90.83c-10.91,.08-21.83,.17-32.74,.25-5.66,.37-10.42-1.17-13.49-6.33-4.09-8.94-9.44-17.18-14.43-25.59-3.33-5.6-4.13-10.65-.36-16.27,2.2-3.28,3.87-6.91,5.78-10.38,17.48,11.47,32.15,25.89,44.73,42.5,3.82,5.05,7.54,10.2,10.51,15.82Z"/><path class="cls-2" d="M194.47,371.44c-.49,1.02-.99,2.04-1.49,3.06-27.59-.01-53.67-6.53-78.52-18.3-1.21-.57-2.37-1.26-3.55-1.89,4.6-7.82,9.36-15.54,13.72-23.49,2.77-5.05,6.7-7.32,12.37-7.21,9.2,.17,18.41,.16,27.61,.23-1.9,1.34-4.44,1.71-5.79,3.89-8.04,12.96-4.31,29.89,10.24,37.12,7.85,3.9,16.64,5.48,25.4,6.58Z"/><path class="cls-2" d="M228.14,295.23c-8.94-.1-17.88-.21-26.82-.31-5.11-1.6-9.67-4.1-13.3-8.11-4.8-8.2-9.6-16.41-14.4-24.61-4.1-6.68-7.33-13.88-12.04-20.2-3.26-7.34-7.84-13.95-11.67-20.97-1.42-2.6-2.94-5.13-4.42-7.69-1.27-5.11-1.58-10.25-.27-15.41,4.46-8.88,9.7-17.31,14.64-25.92,.74-1.28,1.29-2.67,1.93-4.01,2.95-3.99,5.24-8.36,7.4-12.8,5.97-9.01,10.97-18.59,16.42-27.91,4.85-8.29,12.11-12.24,21.5-12.36,5.33-.07,10.68-.45,16,.29-.03,1.06-.63,1.8-1.24,2.62-3.47,4.68-6.62,9.56-9.27,14.76-4.99,9.78-7.99,20.19-9.86,30.96-5.17-3.92-9.73-3.61-12.76,1.29-7.26,11.76-14.33,23.63-21.44,35.49-1.44,2.4-1.65,5.06-.26,7.5,7.29,12.75,14.6,25.5,22.09,38.14,2.08,3.52,6.46,4.36,9.87,2.48,3.58-1.97,4.98-6.13,3.29-9.96-.45-1.02-1.04-1.98-1.6-2.95-5.55-9.59-11.1-19.18-16.68-28.75-.77-1.33-1.38-2.41-.36-4.05,5.73-9.18,11.33-18.45,16.97-27.68-.1,11.13,1.19,22.06,4.7,32.66,3.69,11.15,8.53,21.72,16.46,30.61-.29,.95-.52,1.91-.87,2.83-1.79,4.78-1.23,8.09,1.81,10.45,3,2.33,6.02,2.15,10.29-.6,9.25,8.25,19.57,14.76,31.13,19.28,13.34,5.23,27.25,7.01,41.47,6.92-4.72,10.56-11.69,18.05-24.29,17.96-4.46-.03-8.93-.02-13.39,0-1.36,0-2.72,.14-4.08,.21-12.32-.04-24.64-.09-36.96-.13Z"/><path class="cls-2" d="M71.73,213.44c-2.93,3.58-4.69,7.87-7.11,11.76-1.76,2.82-3.99,4.18-7.34,4.11-5.85-.13-11.7-.07-17.54-.02-2.72,.02-4.81-.87-6.2-3.32-2.94-5.19-5.89-10.37-8.94-15.5-1.82-3.08-1.92-5.9,.06-9.05,2.99-4.72,5.73-9.6,8.4-14.51,1.54-2.83,3.66-4.14,6.9-4.07,5.85,.12,11.7,.18,17.54-.02,3.3-.11,5.3,1.32,7.01,3.94,2.43,3.74,3.96,8.04,7.11,11.32,.28,.81,.37,1.77,.87,2.42,2.76,3.64,2.74,7.22,.1,10.9-.42,.58-.58,1.36-.86,2.04Zm-20.16-23.79c-6.71-.02-12.63,5.55-12.66,11.92-.02,5.86,6,11.95,11.85,11.98,7.23,.04,12.83-5.16,12.84-11.92,.01-6.47-5.5-11.96-12.04-11.98Z"/><path class="cls-4" d="M194.47,371.44c-8.75-1.11-17.55-2.68-25.4-6.58-14.55-7.23-18.28-24.17-10.24-37.12,1.35-2.18,3.89-2.54,5.79-3.89,.71-.12,1.42-.23,2.13-.35,5.68-.31,9.87,2.16,12.82,6.9,5.08,8.97,10.07,17.99,15.29,26.87,2.9,4.93,3.15,9.54-.4,14.17Z"/><path class="cls-3" d="M169.18,155.2c-2.16,4.44-4.45,8.81-7.4,12.8-14.3-8.19-28.62-16.36-42.91-24.58-8.7-5-17.36-10.09-26.07-15.09-.94-.54-2.09-.72-3.15-1.07,2.37-4.9,5.18-9.54,8.15-14.09,7.74,5.39,16.14,9.66,24.27,14.39,14.89,8.66,29.84,17.23,44.75,25.86,.85,.49,1.57,1.18,2.36,1.78Z"/><path class="cls-3" d="M71.73,213.44c.28-.69,.44-1.46,.86-2.04,2.64-3.68,2.66-7.26-.1-10.9-.49-.65-.59-1.61-.87-2.42,13.57-.06,27.14-.14,40.71-.18,10.96-.02,21.92,.02,32.87,.03-1.31,5.16-1,10.29,.27,15.41-8.44,.07-16.88,.2-25.32,.2-16.14,0-32.29-.06-48.43-.1Z"/><path class="cls-3" d="M179.58,330.39c-2.96-4.74-7.14-7.21-12.82-6.9,3.58-7.67,8.65-14.47,12.73-21.85,2.76-4.99,6.23-9.57,8.53-14.83,3.64,4.01,8.2,6.51,13.3,8.11-6.69,11.17-13.39,22.34-20.07,33.52-.45,.76-.84,1.52-1.66,1.94Z"/><path class="cls-1" d="M161.57,242c4.71,6.32,7.94,13.52,12.04,20.2-8.65,.68-17.05,2.86-25.6,4.16-1.66,.25-3.71,1.23-4.79-.51-1.25-2,.7-3.33,1.88-4.74,4.37-5.23,8.67-10.51,13.06-15.72,1.03-1.22,2.27-2.26,3.41-3.39Z"/><path class="cls-4" d="M223.01,238.3c-7.93-8.89-12.76-19.46-16.46-30.61-3.51-10.59-4.81-21.53-4.7-32.66,2.17-3.69,3.65-7.42,.88-11.49,1.88-10.77,4.88-21.18,9.86-30.96,2.65-5.19,5.81-10.08,9.27-14.76,.61-.82,1.21-1.56,1.24-2.62,2.43-.19,4.85-.37,7.28-.56,11.03,.02,22.05,.03,33.07,.05,5.8,.05,11.6,.18,17.4,.11,3.49-.04,6.87,.43,10.21,1.33,4.94,1.8,8.7,5.14,11.9,9.2,4.28,7.45,8.56,14.9,12.84,22.35,5.57,9.83,10.96,19.77,17.06,29.29,3.53,6.19,7.05,12.38,10.58,18.57,2.24,6.5,2.27,12.97-.22,19.41-4.54,7.99-9.69,15.63-13.47,24.04-5.69,8-10.17,16.72-14.86,25.31-2.69,4.29-5.37,8.58-8.06,12.87-14.22,.08-28.13-1.7-41.47-6.92-11.56-4.53-21.88-11.04-31.13-19.28,.58-1.09,1.27-2.14,1.72-3.28,10.55-26.44,21.07-52.88,31.58-79.34,.64-1.61,1.23-3.26,.78-5.08-.86-3.52-3.04-5.66-6.61-6.24-3.4-.55-6.59,1.4-8.13,5.19-4.27,10.48-8.39,21.01-12.61,31.5-5.97,14.86-11.98,29.71-17.97,44.57Zm98.87-34.93c-.08-.29-.15-1.49-.7-2.41-7.34-12.28-14.65-24.58-22.18-36.75-2.2-3.56-6.82-4.29-10.23-2.21-3.43,2.09-4.55,6.3-2.68,10.13,.44,.89,.98,1.73,1.5,2.58,5.08,8.42,9.94,16.97,15.35,25.18,2.29,3.47,2.01,5.94-.05,9.29-5.6,9.11-10.85,18.44-16.18,27.72-2.65,4.61-1.74,9,2.21,11.38,3.9,2.35,8.31,.95,10.98-3.64,6.89-11.82,13.72-23.68,20.59-35.52,.89-1.54,1.54-3.12,1.38-5.75Z"/><path class="cls-1" d="M263.46,114.7c-11.02-.02-22.05-.03-33.07-.05,2.3-8.8,6.02-17.1,8.95-25.69,1.6-4.71,3.38-9.35,5.12-14.01,.44-1.17,1.03-2.5,2.47-2.48,1.44,.02,1.9,1.33,2.34,2.55,4.72,13.23,9.46,26.45,14.2,39.67Z"/><path class="cls-3" d="M302.97,125.35c-3.2-4.06-6.95-7.4-11.9-9.2,6.29-10.47,12.58-20.93,18.87-31.4,3.06,5.16,7.83,6.7,13.49,6.33-2.17,5.56-5.75,10.33-8.79,15.39-3.8,6.34-7.19,12.95-11.67,18.88Z"/><path class="cls-1" d="M228.14,295.23c12.32,.04,24.64,.09,36.96,.13-1.65,7.3-4.89,14.06-7.25,21.13-2.56,7.66-5.5,15.19-8.29,22.76-.54,1.47-.72,3.54-2.8,3.43-1.68-.09-2.17-1.9-2.67-3.28-5.34-14.71-10.64-29.44-15.95-44.16Z"/><path class="cls-1" d="M332.87,176.98c-6.1-9.52-11.49-19.46-17.06-29.29,8.04-.67,15.87-2.67,23.82-3.87,6-.91,11.96-2.04,17.91-3.22,1.4-.28,2.45-.23,3.29,.93,.99,1.37-.04,2.41-.79,3.31-5.57,6.67-11.19,13.3-16.81,19.94-3.45,4.08-6.91,8.14-10.37,12.21Z"/><path class="cls-1" d="M314.9,264.32c4.68-8.6,9.16-17.31,14.86-25.31,4.1,2.59,6.36,6.87,9.44,10.38,5.07,5.79,9.9,11.79,14.83,17.7,.7,.84,1.74,1.57,.75,2.87-.87,1.14-1.99,1.29-3.33,1.04-12.18-2.24-24.36-4.46-36.54-6.68Z"/><path class="cls-3" d="M343.23,214.97c2.49-6.44,2.46-12.92,.22-19.41,7.53,1.71,14.64,4.66,21.73,7.62,2.28,.95,2.11,3.19-.22,4.06-7.2,2.68-14.48,5.17-21.73,7.73Z"/><path class="cls-4" d="M51.57,189.65c6.53,.02,12.05,5.51,12.04,11.98-.01,6.76-5.61,11.96-12.84,11.92-5.86-.03-11.88-6.12-11.85-11.98,.03-6.37,5.94-11.95,12.66-11.92Z"/></svg>