<?xml version="1.0" encoding="UTF-8"?><svg id="Ebene_1" xmlns="http://www.w3.org/2000/svg" viewBox="0 0 391.42 408.89"><defs><style>.cls-1{fill:#d5e5f7;}.cls-2{fill:#1a2b63;}.cls-3{fill:#d7e8fa;}.cls-4{fill:#805059;}.cls-5{fill:#68ccfe;}.cls-6{fill:#52b9ed;}.cls-7{fill:#d8e7f9;}.cls-8{fill:#a66a75;}.cls-9{fill:#edf4fd;}.cls-10{fill:#ecc1b6;}.cls-11{fill:#adc0eb;}.cls-12{fill:#363e59;}.cls-13{fill:#fbfbfc;}.cls-14{fill:#495377;}.cls-15{fill:#d99d8f;}.cls-16{fill:#c98e99;}.cls-17{fill:#081226;}.cls-18{fill:#1b2b63;}.cls-19{fill:#232837;}.cls-20{fill:#455fa1;}.cls-21{fill:#aebfeb;}</style></defs><path class="cls-12" d="M178.83,408.89c-4.85-.8-9.71-1.6-14.56-2.41-17.75-2.96-34.89-7.87-51.08-15.85,.57-.68,1.48-1.28,1.66-2.04,2.66-11.26,9.07-20.16,17.46-27.77,13.2-11.97,28.79-15.97,46.24-13.62,3.01,.41,6.04,.69,9.06,1.02,2.69,1.87,5.37,3.74,8.2,5.71,13.07-11.32,28.17-16.05,45.57-13.82,1.53-9.8,5.14-18.56,10.15-26.79,.28-.46,.03-1.24,.03-1.87,.67-.35,1.5-.56,2-1.07,4.02-4.14,7.59-8.81,12.03-12.44,12.35-10.1,26.64-15.25,42.71-15.08-.55,.48-1.03,1.14-1.67,1.4-7.81,3.16-16.19,5.35-23.36,9.57-17.29,10.18-28.41,25.44-33.59,44.95-.54,2.03-.56,3.17,1.71,3.92,9.61,3.16,17.32,9.19,23.71,16.81,6.5,7.74,10.79,16.61,11.52,26.91-18.73,10.16-38.7,16.6-59.68,20.04-5.11,.84-10.24,1.61-15.36,2.41h-32.74Z"/><path class="cls-17" d="M27.13,312.28c-10.73-17.32-17.87-36.1-22.32-55.9C-17.52,156.89,39.83,57.04,137.11,26.72c12.17-3.79,25.12-5.1,37.71-7.55-.96,1.41-1.87,2.85-2.87,4.23-10.98,15.19-19.51,31.62-25.09,49.54-.24,.47-.53,.91-.7,1.4-6.81,20.52-10.75,41.59-12.24,63.14-10.12,5.82-17.63,14.31-22.62,24.6-12.05,24.88-12.28,50.03-.03,75.04,2.89,5.91,4.11,6.26,10.19,3.14,7.92-1.33,15.84-2.67,23.75-4q4.71,10.5,15.26,9.69c1.41,.1,2.83,.2,4.24,.29-.03,5.02,.02,10.04-.1,15.05-.08,3.64,1.22,6.12,4.99,6.9-4.24,10.96-8.43,21.93-12.77,32.85-.41,1.04-1.61,2.07-2.68,2.49-5.58,2.18-10.26,5.5-13.9,10.26-2.84-3.17-5.68-6.34-8.52-9.5-.5-.9-.79-2.08-1.55-2.64-4.99-3.7-9.75-7.88-15.2-10.76-12.04-6.37-24.81-9.16-38.69-7.49-17.41,2.11-31.79,9.34-43.29,22.48-1.91,2.18-3.92,4.27-5.88,6.4ZM62.27,117c-.5,.17-1.1,.21-1.48,.52-1.26,1.01-2.44,2.12-3.65,3.19,1.17,1.11,2.15,2.7,3.54,3.26,7.59,3.05,12.59,8.45,15.58,15.97,.47,1.18,1.87,2.72,2.87,2.75,.96,.02,2.08-1.62,2.9-2.7,.52-.69,.62-1.7,.91-2.56,3-6.44,7.89-10.8,14.44-13.51,1.4-.58,2.41-2.11,3.61-3.21-1.24-1.07-2.31-2.55-3.75-3.13-7.04-2.84-11.89-7.69-14.83-14.69-.63-1.5-2.23-2.6-3.39-3.88-1.11,1.35-2.61,2.53-3.27,4.07-2.75,6.39-7.05,11.15-13.48,13.92Z"/><path class="cls-17" d="M308.29,282.87c-16.07-.17-30.36,4.98-42.71,15.08-4.43,3.62-8.01,8.29-12.03,12.44-.5,.52-1.33,.72-2,1.07-5.74-3.21-11.48-6.41-17.22-9.62-4.38-11.34-8.77-22.68-13.15-34.03,3.65-.17,5.03-2.13,4.93-5.71-.15-5.29-.03-10.59-.02-15.89,1.33-.05,2.68-.32,3.97-.12,8.15,1.26,14.33-.5,15.8-9.87,8.97,.14,17.68,1.7,26.01,5.02,3.83,1.52,5.75,.23,7.52-3.22,8.75-17.03,11.24-35,7.8-53.66-3.6-19.54-12.57-35.9-29.96-46.74-.33-3.43-.62-6.86-1-10.28-2.08-18.6-5.62-36.87-12.03-54.51-4.66-10.65-8.87-21.53-14.13-31.88-3.87-7.62-9.1-14.54-13.72-21.78,10.13,1.76,20.38,3.02,30.37,5.39,15.79,3.74,30.55,10.33,44.77,18.1-3,2.47-6,4.95-9.01,7.42-2.05,1.29-4.09,2.57-6.14,3.86,1.84,1.5,3.47,3.42,5.55,4.42,5.76,2.75,9.97,6.79,12.75,12.56,1.04,2.16,3.04,3.86,4.6,5.77,1.35-2.12,2.71-4.24,4.06-6.36,2.83-5.09,6.33-9.49,12.07-11.52,28.92,22.3,50.23,50.47,62.83,84.66,21.58,58.57,16.61,115.22-14.37,169.5-.45-.48-.97-.9-1.35-1.43-8.97-12.51-20.75-21.24-35.53-25.48-6.04-1.73-12.46-2.18-18.7-3.2Zm14.99-127.08c2.78-5.43,7.04-9.17,12.67-11.52,1.17-.49,1.99-1.84,2.97-2.8-.93-.85-1.71-2.04-2.8-2.49-6.47-2.69-11.04-7.15-13.71-13.67-.48-1.18-1.84-2-2.79-2.99-.9,1.06-2.14,1.97-2.65,3.19-2.41,5.78-6.39,10.01-11.98,12.76-1.57,1.03-3.13,2.06-4.7,3.09,1.3,1.15,2.43,2.68,3.94,3.37,5.84,2.64,9.92,6.82,12.49,12.68,.58,1.33,1.9,2.33,2.89,3.48,1.01-1.09,2.09-2.13,3.01-3.28,.38-.48,.45-1.21,.65-1.82Z"/><path class="cls-14" d="M308.29,282.87c6.25,1.03,12.66,1.47,18.7,3.2,14.77,4.24,26.56,12.97,35.53,25.48,.38,.53,.9,.96,1.35,1.43-10,17.56-22.88,32.77-37.86,46.22-11.96,10.74-24.99,20-39.4,27.23-.73-10.3-5.02-19.17-11.52-26.91-6.39-7.61-14.1-13.64-23.71-16.81-2.27-.75-2.25-1.89-1.71-3.92,5.18-19.51,16.31-34.77,33.59-44.95,7.17-4.23,15.55-6.41,23.36-9.57,.64-.26,1.12-.93,1.67-1.4Z"/><path class="cls-14" d="M131.72,304.29c2.84,3.17,5.68,6.34,8.52,9.5,.54,1.19,1.02,2.41,1.63,3.56,3.79,7.14,6.72,14.57,7.61,22.68-13.76,2.62-25.3,9.14-34.01,20.15-6.07,7.67-10.31,16.27-10.9,26.29-29.33-15.27-52.93-36.94-71.58-64.14-.21-.31-.23-.75-.33-1.12,5.53-7.92,12.34-14.55,20.65-19.44,18.14-10.67,37.45-13.63,57.6-7.03,7.21,2.36,13.89,6.32,20.81,9.55Z"/><path class="cls-8" d="M216.36,19.19c4.62,7.23,9.85,14.16,13.72,21.78,5.25,10.35,9.47,21.23,14.13,31.88-8.42,0-16.84-.02-25.27-.03-12.35,.01-24.7,.02-37.04,.03-3.19,0-6.38,.02-9.57,.03-4.74-.02-9.47-.05-14.21-.07,5.12-11.36,9.7-23.01,15.49-34.02,6.95-13.23,16.13-24.96,27.58-34.75,4.82,4.88,9.63,9.77,14.45,14.65,.26,.19,.52,.38,.78,.57,0,0-.06-.06-.06-.06Z"/><path class="cls-19" d="M104.57,386.48c.59-10.02,4.83-18.62,10.9-26.29,8.71-11.01,20.25-17.53,34.01-20.15,.53,0,1.06,.09,1.57,.02,13.2-1.83,25.39,.85,36.55,8.17-3.02-.34-6.05-.62-9.06-1.02-17.45-2.35-33.04,1.65-46.24,13.62-8.4,7.61-14.8,16.51-17.46,27.77-.18,.77-1.09,1.37-1.66,2.04-2.87-1.38-5.74-2.77-8.61-4.15Z"/><path class="cls-12" d="M131.72,304.29c-6.92-3.23-13.61-7.19-20.81-9.55-20.15-6.6-39.46-3.64-57.6,7.03-8.31,4.89-15.12,11.52-20.65,19.44-1.85-2.98-3.69-5.95-5.54-8.93,1.96-2.13,3.97-4.22,5.88-6.4,11.5-13.14,25.88-20.38,43.29-22.48,13.88-1.68,26.65,1.12,38.69,7.49,5.44,2.88,10.21,7.06,15.2,10.76,.75,.56,1.04,1.74,1.55,2.64Z"/><path class="cls-4" d="M201.19,4.04c-11.45,9.79-20.63,21.52-27.58,34.75-5.79,11.01-10.37,22.66-15.49,34.02,0,0,0,.37,0,.37-3.76-.08-7.51-.16-11.27-.24,5.59-17.92,14.11-34.35,25.09-49.54,1-1.38,1.92-2.82,2.87-4.23,0,0-.06,.08-.06,.08,.23-.18,.47-.36,.7-.54,4.97-5.11,9.81-10.36,14.94-15.3,4.94-4.75,6.14-4.54,10.79,.63Z"/><path class="cls-16" d="M315.4,58.83c-5.75,2.04-9.25,6.43-12.07,11.52-1.29-1.27-3.08-2.32-3.77-3.86-2.93-6.55-8.04-10.58-14.28-13.6-1.12-.54-1.87-1.85-2.79-2.8,3-2.47,6-4.95,9.01-7.42,1.57-2.73,3.05-5.51,4.74-8.16,.65-1.02,1.76-2.38,2.69-2.4,.91-.02,2.32,1.27,2.72,2.3,3.18,8.26,8.73,14.01,17.08,17.12,1.07,.4,2.41,1.7,2.47,2.66,.05,.87-1.36,1.98-2.33,2.72-1.03,.79-2.3,1.29-3.46,1.91Z"/><path class="cls-18" d="M216.42,19.26c-.26-.19-.52-.38-.78-.57,.26,.19,.52,.38,.78,.57Z"/><path class="cls-2" d="M175.46,18.71c-.23,.18-.47,.36-.7,.54,.23-.18,.47-.36,.7-.54Z"/><path class="cls-11" d="M187.6,348.23c-11.16-7.31-23.35-10-36.55-8.17-.51,.07-1.05,0-1.57-.02-.89-8.12-3.82-15.54-7.61-22.68-.61-1.15-1.09-2.37-1.63-3.56,3.64-4.76,8.32-8.08,13.9-10.26,1.07-.42,2.27-1.45,2.68-2.49,4.34-10.92,8.54-21.89,12.77-32.85,2.27-.13,4.55-.27,6.83-.4-4.26,11.18-8.52,22.35-12.9,33.86,11.27,.71,20.02,4.92,26.28,13.96,.88-.7,1.54-1.11,2.07-1.66,8.91-9.27,19.94-13.17,32.6-12.84,3.29,.09,6.58,.48,9.86,.73,5.74,3.21,11.48,6.41,17.22,9.62,0,.63,.25,1.41-.03,1.87-5,8.23-8.62,16.99-10.15,26.79-17.4-2.23-32.5,2.49-45.57,13.82-2.83-1.97-5.51-3.84-8.2-5.71Z"/><path class="cls-9" d="M158.12,72.81c4.74,.02,9.47,.05,14.21,.07,.04,1.97,.12,3.93,.13,5.9q.01,11.18,11.17,10.61c9.96,.03,19.92,.05,29.88,.09,3.46,.01,5.11-1.71,5.17-5.13,.06-3.84,.18-7.69,.27-11.53,8.42,0,16.84,.02,25.27,.03,6.41,17.64,9.95,35.92,12.03,54.51,.38,3.42,.67,6.85,1,10.28,0,1.06-.08,2.12,0,3.18,1.36,18.48,.64,36.9-2.55,55.11-2.38,13.53-5.84,26.88-8.82,40.3-1.47,9.37-7.66,11.13-15.8,9.87-1.29-.2-2.64,.07-3.97,.12-15.78,0-31.56,0-47.35,0-4.68,0-9.36,.01-14.03,.02-1.41-.1-2.83-.2-4.24-.29-.79-1.94-1.81-3.82-2.34-5.83-2.85-10.71-6.41-21.32-8.16-32.22-2.53-15.71-4.74-31.62-5.17-47.49-.39-14.3,1.48-28.7,2.95-43,1.55-15.15,5.31-29.86,10.37-44.23v-.37Zm78.2,71.76c0-22.2-18.33-40.63-40.51-40.7-22.43-.07-40.93,18.31-40.93,40.68,0,22.16,18.4,40.66,40.51,40.74,22.33,.09,40.92-18.41,40.93-40.73Z"/><path class="cls-7" d="M158.12,73.18c-5.06,14.37-8.82,29.09-10.37,44.23-1.47,14.3-3.33,28.7-2.95,43,.43,15.87,2.64,31.77,5.17,47.49,1.75,10.9,5.31,21.51,8.16,32.22,.54,2.01,1.55,3.89,2.34,5.83q-10.55,.82-15.26-9.69c-.09-.51-.13-1.04-.29-1.53-5.96-19.42-9.89-39.22-10.82-59.54-.46-9.94-.6-19.89-.89-29.83,.23-2.63,.47-5.25,.7-7.88,1.48-21.55,5.42-42.62,12.24-63.14,.16-.49,.46-.93,.7-1.4,3.76,.08,7.51,.16,11.27,.24Z"/><path class="cls-8" d="M133.22,145.35c.29,9.94,.43,19.89,.89,29.83,.93,20.32,4.86,40.12,10.82,59.54,.15,.49,.19,1.02,.29,1.53-7.92,1.33-15.84,2.67-23.75,4-.3-1-.46-2.08-.93-3-8.87-17.41-10.97-35.75-7.14-54.76,2.88-14.29,8.83-27.11,19.82-37.15Z"/><path class="cls-4" d="M133.22,145.35c-10.99,10.04-16.94,22.86-19.82,37.15-3.83,19-1.74,37.35,7.14,54.76,.47,.92,.63,2,.93,3-6.08,3.11-7.29,2.77-10.19-3.14-12.25-25.01-12.03-50.16,.03-75.04,4.99-10.29,12.49-18.78,22.62-24.6-.23,2.63-.47,5.25-.7,7.88Z"/><path class="cls-10" d="M62.27,117c6.43-2.76,10.73-7.53,13.48-13.92,.66-1.54,2.16-2.72,3.27-4.07,1.15,1.28,2.76,2.38,3.39,3.88,2.94,6.99,7.79,11.85,14.83,14.69,1.44,.58,2.51,2.06,3.75,3.13-1.19,1.09-2.2,2.63-3.61,3.21-6.55,2.71-11.44,7.07-14.44,13.51-.89-1.04-2.15-1.95-2.62-3.15-2.82-7.25-8.05-11.94-15.05-14.96-1.12-.48-2-1.53-3-2.31Z"/><path class="cls-4" d="M164.71,246.24c4.68,0,9.36-.01,14.03-.02,.02,5.3-.11,10.6,.12,15.88,.08,1.85,1.06,3.66,1.63,5.49-1.08,.07-2.15,.14-3.23,.22-.28,0-.56,0-.85-.01-2.28,.13-4.55,.27-6.83,.4-3.77-.78-5.07-3.27-4.98-6.9,.11-5.02,.07-10.03,.1-15.05Z"/><path class="cls-15" d="M62.27,117c.99,.78,1.87,1.83,3,2.31,7,3.02,12.23,7.72,15.05,14.96,.47,1.21,1.73,2.11,2.62,3.15-.29,.86-.39,1.87-.91,2.56-.82,1.08-1.94,2.72-2.9,2.7-1-.02-2.4-1.57-2.87-2.75-2.99-7.53-7.99-12.92-15.58-15.97-1.39-.56-2.37-2.14-3.54-3.26,1.21-1.07,2.39-2.18,3.65-3.19,.39-.31,.98-.36,1.48-.52Z"/><path class="cls-8" d="M245.86,236.23c2.98-13.43,6.45-26.77,8.82-40.3,3.2-18.21,3.91-36.64,2.55-55.11-.08-1.05,0-2.12,0-3.18,17.39,10.83,26.36,27.2,29.96,46.74,3.44,18.66,.95,36.63-7.8,53.66-1.77,3.45-3.7,4.74-7.52,3.22-8.33-3.32-17.05-4.87-26.01-5.02Z"/><path class="cls-3" d="M176.42,267.79c.28,0,.56,0,.85,.01,.21,.48,.66,.99,.6,1.44-.92,7.35-1.85,14.7-2.91,22.03-.48,3.32,.29,5.73,3.82,6.66,1.09,0,2.17,.01,3.26,.02,2.77-.8,4.11-2.45,3.94-5.52-.18-3.23-.02-6.5,.2-9.73,.15-2.09,.61-4.16,1.05-6.21,.62-2.9,1.35-5.77,2.04-8.65h12.64c.32,3.55,.51,7.12,1,10.64,.53,3.8,3.17,6.09,6.32,5.83,3.23-.27,5.54-2.87,5.48-6.63-.05-3.29-.49-6.57-.76-9.86,2.41,0,4.82,0,7.23,0,4.38,11.34,8.77,22.68,13.15,34.03-3.29-.25-6.57-.64-9.86-.73-12.66-.33-23.7,3.57-32.6,12.84-.53,.55-1.19,.96-2.07,1.66-6.26-9.04-15.02-13.25-26.28-13.96,4.38-11.5,8.64-22.68,12.9-33.86Z"/><path class="cls-8" d="M201.91,267.83h-12.64c-2.93-.08-5.85-.16-8.78-.24-.57-1.83-1.55-3.64-1.63-5.49-.24-5.29-.11-10.59-.12-15.88,15.78,0,31.56,0,47.34,0,0,5.3-.13,10.6,.02,15.89,.1,3.58-1.27,5.54-4.93,5.71-2.41,0-4.82,0-7.23,0-4.01,0-8.03,.02-12.04,.02Z"/><path class="cls-13" d="M304.99,138.28c5.59-2.75,9.56-6.98,11.98-12.76,.51-1.22,1.75-2.14,2.65-3.19,.95,.99,2.31,1.81,2.79,2.99,2.66,6.52,7.23,10.98,13.71,13.67,1.09,.45,1.87,1.64,2.8,2.49-.98,.95-1.8,2.3-2.97,2.8-5.62,2.36-9.89,6.1-12.67,11.52-.96-.94-2.4-1.7-2.81-2.84-1.99-5.54-5.97-9.04-10.98-11.69-1.58-.84-3-1.98-4.49-2.98Z"/><path class="cls-8" d="M282.49,50.1c.92,.95,1.67,2.26,2.79,2.8,6.24,3.01,11.35,7.05,14.28,13.6,.69,1.54,2.48,2.58,3.77,3.86-1.35,2.12-2.71,4.24-4.06,6.36-1.56-1.91-3.56-3.61-4.6-5.77-2.79-5.77-7-9.81-12.75-12.56-2.08-.99-3.71-2.92-5.55-4.42,2.05-1.29,4.09-2.57,6.14-3.86Z"/><path class="cls-1" d="M304.99,138.28c1.49,1,2.91,2.15,4.49,2.98,5.01,2.65,8.99,6.15,10.98,11.69,.41,1.14,1.85,1.9,2.81,2.84-.21,.61-.27,1.34-.65,1.82-.93,1.16-2,2.2-3.01,3.28-.98-1.15-2.3-2.15-2.89-3.48-2.57-5.85-6.64-10.04-12.49-12.68-1.51-.68-2.64-2.22-3.94-3.37,1.57-1.03,3.13-2.06,4.7-3.09Z"/><path class="cls-8" d="M218.94,72.82c-.09,3.84-.21,7.69-.27,11.53-.05,3.42-1.71,5.14-5.17,5.13-9.96-.04-19.92-.06-29.88-.09-.54-1.69-1.43-3.36-1.55-5.08-.26-3.8-.14-7.64-.17-11.46,12.35-.01,24.7-.02,37.04-.03Z"/><path class="cls-4" d="M181.9,72.85c.03,3.82-.09,7.65,.17,11.46,.12,1.72,1.01,3.39,1.55,5.08q-11.16,.57-11.17-10.61c0-1.97-.08-3.94-.13-5.9,3.19,0,6.38-.02,9.57-.02Z"/><path class="cls-20" d="M236.31,144.56c0,22.32-18.59,40.81-40.93,40.73-22.11-.08-40.51-18.59-40.51-40.74,0-22.37,18.49-40.76,40.93-40.68,22.18,.07,40.52,18.5,40.51,40.7Zm-37.5,25.66c12.32-1.28,22.83-11.21,22.82-25.66-.02-14.79-10.75-24.78-23.57-25.78-1.29-.17-2.59-.53-3.87-.48-11.12,.47-21.58,9.2-24.04,19.98-2.68,11.73,2.45,23.65,12.76,29.09,4.93,2.6,10.13,4.58,15.91,2.85Z"/><path class="cls-21" d="M180.5,267.59c2.93,.08,5.85,.16,8.78,.24-.68,2.88-1.42,5.76-2.04,8.65-.44,2.05-.91,4.13-1.05,6.21-.23,3.23-.39,6.5-.2,9.73,.17,3.07-1.16,4.72-3.94,5.52-1.09,0-2.17-.01-3.26-.02-3.53-.92-4.3-3.34-3.82-6.66,1.06-7.33,1.98-14.68,2.91-22.03,.06-.45-.39-.96-.6-1.44,1.08-.07,2.15-.14,3.23-.21Z"/><path class="cls-21" d="M201.91,267.83c4.01,0,8.03-.02,12.04-.02,.27,3.29,.71,6.57,.76,9.86,.06,3.77-2.25,6.37-5.48,6.63-3.15,.26-5.79-2.02-6.32-5.83-.49-3.53-.68-7.09-1-10.64Z"/><path class="cls-11" d="M178.78,297.94c1.09,0,2.17,0,3.26,.02-1.09,0-2.17-.01-3.26-.02Z"/><path class="cls-5" d="M198.05,118.78c12.82,1.01,23.56,11,23.57,25.78,.02,14.45-10.49,24.38-22.82,25.66-.3-.25-.56-.64-.9-.73-11.2-2.97-18.34-12.23-18.89-24.21-.39-8.44,3.55-19.12,14.96-24.25,1.41-.63,2.71-1.5,4.07-2.25Z"/><path class="cls-6" d="M198.05,118.78c-1.35,.76-2.66,1.62-4.07,2.25-11.41,5.13-15.35,15.81-14.96,24.25,.55,11.98,7.69,21.24,18.89,24.21,.34,.09,.6,.48,.9,.73-5.78,1.73-10.97-.25-15.91-2.85-10.32-5.44-15.45-17.36-12.76-29.09,2.46-10.77,12.93-19.5,24.04-19.98,1.28-.05,2.58,.31,3.87,.48Z"/></svg>