<?xml version="1.0" encoding="UTF-8"?><svg id="Ebene_1" xmlns="http://www.w3.org/2000/svg" viewBox="0 0 375.51 383.88"><defs><style>.cls-1{fill:#805059;}.cls-2{fill:#fbf2f3;}.cls-3{fill:#61d8f9;}.cls-4{fill:#a66a75;}.cls-5{fill:#363e59;}.cls-6{fill:#495377;}.cls-7{fill:#d99d8f;}.cls-8{fill:#fb5e93;}.cls-9{fill:#c98e99;}.cls-10{fill:#081226;}.cls-11{fill:#0594fa;}</style></defs><path class="cls-4" d="M174.93,0h26.24c.48,1.08,1.47,.65,2.27,.76,4.54,.59,9.11,.99,13.51,2.35,.52,.19,1.04,.37,1.56,.56,0,0-.05-.05-.05-.05,.5,1.36,1.62,2.21,2.62,3.12,11.45,10.39,19.78,23.06,26.55,36.79,8.88,17.98,14.97,36.94,19.43,56.46,4.19,18.35,6.74,36.95,8.34,55.68-1.47,.26-2.81-.36-3.75-1.25-1.96-1.88-3.67-4.01-5.49-6.04-18.24-22.96-54.53-21.37-71.04,3.12-5.46,6.03-9.68,6.03-14.93,0-2.56-4.06-6.04-7.23-9.77-10.15-18.7-14.63-47.06-11.38-61.05,6.99-.9,1-1.9,1.92-2.68,3.01-1.69,2.37-3.58,4.36-6.76,4.43,.99-6.4,1.29-12.86,2.07-19.29,3.03-24.84,8.27-49.13,17.01-72.61,8.08-21.71,18.52-42,36-57.88,.83-.76,1.66-1.53,1.89-2.71,1.68-.36,3.35-.76,5.03-1.06,4.32-.77,8.65-1.49,12.98-2.23Z"/><path class="cls-6" d="M171.93,383.88c-4.57-1.53-9.4-1.37-14.08-2.23-9.72-1.79-19.43-3.58-28.67-7.23,.03-10.44,.02-20.89,.11-31.33,.04-4.48,1.38-5.76,5.82-5.76,8.58,0,17.16,.05,25.74,.08-3.21,3.3-6.41,6.62-9.63,9.9-1.7,1.73-2.98,3.67-3.27,6.14-.47,4.01,1.54,7.8,5.1,9.6,3.83,1.94,7.89,1.32,11.3-2.03,7.12-6.99,14.19-14.03,21.14-21.19,1.71-1.76,2.66-1.78,4.38-.01,6.78,6.98,13.69,13.82,20.61,20.67,4.63,4.58,10.25,4.87,14.26,.83,3.93-3.95,3.59-9.66-.86-14.28-3.11-3.22-6.24-6.43-9.36-9.64,11.48-.03,22.97-.08,34.45-.08,2.02,0,4.01-.12,5.87-.93,3.01-1.3,4.83-3.52,4.8-6.91-.03-3.52-1.91-5.81-5.07-7.15-1.66-.71-3.41-.65-5.16-.65-15.1-.02-30.21-.05-45.31-.08,6.34-6.43,12.58-12.96,19.05-19.25,3.28-3.19,4.97-6.7,4.1-11.27,8.36-.04,16.73-.07,25.09-.12,3.43-.02,5.55-1.86,6.79-4.93,1.16-2.88,.41-5.47-1.48-7.66-1.95-2.26-4.7-2.49-7.54-2.49-37.33,.04-74.65,.02-111.98,.02-1.12,0-2.25,.03-3.37-.01-3.91-.15-5.45-1.59-5.46-5.52-.03-7.29,2.41-13.2,9.65-16.21,2.05-.6,4.14-.76,6.27-.76,39.63,.03,79.27,.02,118.9,.02,6.98,1.41,11.79,7.39,11.94,15.12,.12,6.36,.13,12.73-.02,19.09-.06,2.52,.62,3.43,3.31,3.53,5.71,.21,8.3,2.98,8.51,8.76,.15,4.24,.12,8.49,.02,12.73-.14,6.21-2.67,8.81-8.89,9.05-1.97,.08-2.95,.47-2.93,2.71,.12,12.35,.13,24.7,.18,37.06-8.03,5.31-16.99,8.64-25.96,11.84-14.91,5.31-30.24,8.83-46.08,9.87-.6,.04-1.27-.04-1.53,.72h-30.74Zm80.35-23.94c4.33-.06,7.46-3.33,7.36-7.67-.1-4.16-3.52-7.4-7.8-7.37-4.27,.03-7.34,3.3-7.25,7.74,.09,4.42,3.19,7.36,7.68,7.3Zm-.22-60.86c-4.46,.01-7.45,3.01-7.46,7.49,0,4.3,3.22,7.55,7.5,7.56,4.1,0,7.58-3.5,7.54-7.62-.03-4.34-3.2-7.44-7.58-7.43Z"/><path class="cls-1" d="M89.43,36.51c2.43-1.04,4.34-2.85,6.4-4.42,18.29-14.02,38.48-23.97,61.1-28.79-.23,1.18-1.06,1.96-1.89,2.71-17.49,15.88-27.92,36.17-36,57.88-8.74,23.47-13.98,47.77-17.01,72.61-.79,6.42-1.08,12.89-2.07,19.29-.99,.03-1.98,.06-2.97,.09l.02,.06c-.08-.56-.46-.65-.93-.62-2.31-1.38-3.67-3.65-5.35-5.63-9.54-11.3-21.37-17.9-36.51-17.6-5.65-.03-11.02,1.29-16.19,3.5-5.99-1.32-7.27-3.45-5.47-9.28,10.29-33.35,27.57-62.36,53.46-86.03,.56-.52,1.67-.81,1.26-1.99,0,0-.04,.03-.04,.03,.95,.52,1.19-.22,1.51-.84,0,0-.05,.04-.05,.04,.57-.1,.83-.43,.75-1.01Z"/><path class="cls-9" d="M218.46,3.62c10.94,1.68,21.14,5.66,31.11,10.23,12.07,5.54,23.17,12.64,33.4,21.12,.75,.62,1.54,1.18,2.32,1.78,.11,.88,.77,.79,1.38,.78,0,0-.06-.04-.06-.04,.34,.6,.48,1.56,1.54,.82,0,0-.06-.04-.06-.04-.33,1.77,1.35,2.19,2.22,3,25.44,23.67,42.44,52.51,52.54,85.59,1.38,4.53,.62,6.21-3.64,8.35-1.76,.04-3.4-.45-5.06-.99-3.76-1.24-7.57-2.28-11.59-2.14-16.22-.92-28.66,6.17-38.64,18.35-1.43,1.75-2.78,3.52-4.67,4.8l-3.86,.44c-1.6-18.74-4.14-37.33-8.34-55.68-4.46-19.51-10.55-38.48-19.43-56.46-6.78-13.73-15.11-26.4-26.55-36.79-1-.91-2.12-1.77-2.62-3.12Z"/><path class="cls-10" d="M195.13,151.49c16.52-24.48,52.8-26.07,71.04-3.11-.38,.49-.81,.96-1.13,1.48-13.52,22.03-27.06,44.06-40.54,66.11-7.42,12.14-14.74,24.35-22.11,36.53-2.36,.02-4.72,.04-7.07,.05-.02-5.99-.06-11.98-.07-17.97-.04-27.7-.08-55.4-.12-83.1Z"/><path class="cls-10" d="M109.38,148.34c13.99-18.37,42.34-21.62,61.05-6.99,3.74,2.92,7.22,6.09,9.77,10.15-.03,2-.08,3.99-.08,5.99-.03,31.69-.05,63.38-.07,95.08-2.09-.03-4.18-.05-6.27-.08-.65-1.21-1.23-2.46-1.96-3.62-10.09-16.22-20.23-32.41-30.3-48.63-10.74-17.28-21.43-34.59-32.14-51.89Z"/><path class="cls-7" d="M202.39,252.5c7.37-12.18,14.69-24.38,22.11-36.53,13.48-22.06,27.02-44.08,40.54-66.11,.32-.53,.75-.99,1.13-1.48,1.81,2.03,3.53,4.16,5.49,6.04,.93,.89,2.27,1.51,3.75,1.25,1.29-.15,2.57-.29,3.85-.44-.45,.88-.85,1.79-1.37,2.63-7.79,12.73-15.69,25.39-23.35,38.19-3.16,5.29-7.12,10.16-9.15,16.1-.1,.1-.2,.19-.3,.29,.11-.08,.23-.17,.34-.25,.76-.64,1.57-1.22,2.26-1.93,20.09-20.88,40.18-41.75,60.24-62.66,4.93-5.13,9.76-10.35,14.64-15.53,4.02-.14,7.83,.9,11.59,2.14,1.66,.54,3.3,1.03,5.06,.99-19.63,20.61-39.22,41.25-58.9,61.81-15.8,16.51-31.71,32.9-47.54,49.37-1.89,1.97-3.58,4.13-5.37,6.21-8.34-.03-16.67-.07-25.01-.1Z"/><path class="cls-7" d="M109.38,148.34c10.71,17.3,21.4,34.61,32.14,51.89,10.08,16.22,20.21,32.41,30.3,48.63,.72,1.16,1.31,2.41,1.95,3.62-6.39,.03-12.77,.07-19.15,.1-.91-1.02-1.76-2.1-2.72-3.06-12.73-12.71-25.45-25.43-38.21-38.11-24.1-23.95-48.22-47.88-72.33-71.83-1.23-1.22-2.64-2.31-3.34-4,5.17-2.21,10.53-3.53,16.19-3.5,.4,.48,.77,.98,1.21,1.42,21.66,21.61,43.32,43.21,64.99,64.8,.5,.5,1.06,.93,1.71,1.49,.63-1.97-.64-3.09-1.37-4.28-7.35-11.89-14.78-23.73-22.15-35.62-.76-1.23-2-2.33-1.61-4.04,.99-.03,1.98-.06,2.97-.09,3.17-.08,5.06-2.06,6.76-4.43,.78-1.09,1.78-2.01,2.68-3.01Z"/><path class="cls-7" d="M180.04,252.56c.02-31.69,.05-63.38,.07-95.08,0-2,.05-3.99,.08-5.99,5.25,6.03,9.47,6.03,14.93,0,.04,27.7,.07,55.4,.12,83.1,0,5.99,.05,11.98,.07,17.97-5.09,0-10.18,0-15.27,0Z"/><path class="cls-8" d="M216.96,3.11c.61-.06,1.17,.02,1.56,.56-.52-.19-1.04-.37-1.56-.56Z"/><path class="cls-10" d="M227.4,252.6c1.78-2.07,3.47-4.24,5.37-6.21,15.83-16.47,31.74-32.87,47.54-49.37,19.68-20.56,39.27-41.2,58.9-61.81,4.26-2.14,5.03-3.82,3.64-8.35-10.1-33.08-27.09-61.92-52.54-85.59-.87-.81-2.55-1.22-2.22-3,6.72,2.93,12.24,7.66,17.77,12.25,39.02,32.44,62.22,73.77,68.32,124.2,9.08,75.07-29.2,149.05-95.55,185.68-.76,.42-1.59,.7-2.38,1.05-.05-12.35-.06-24.7-.18-37.06-.02-2.23,.97-2.63,2.93-2.71,6.22-.24,8.75-2.84,8.89-9.05,.1-4.24,.13-8.49-.02-12.73-.21-5.78-2.79-8.55-8.51-8.76-2.68-.1-3.36-1.01-3.31-3.53,.14-6.36,.14-12.73,.02-19.09-.15-7.73-4.96-13.71-11.94-15.12-1.42-1.13-3.1-.72-4.67-.73-10.68-.06-21.37-.07-32.06-.09Z"/><path class="cls-10" d="M288.15,38.31c-1.05,.74-1.2-.21-1.54-.82,.77-.21,1.29,.04,1.54,.82Z"/><path class="cls-10" d="M286.67,37.53c-.61,0-1.27,.09-1.38-.78,.59,.04,1.3-.14,1.38,.78Z"/><path class="cls-10" d="M38.02,135.59c.69,1.68,2.1,2.77,3.34,4,24.1,23.95,48.23,47.87,72.33,71.83,12.76,12.68,25.48,25.4,38.21,38.11,.96,.96,1.82,2.04,2.72,3.06-5.21,.1-10.43,.2-15.64,.31-7.48-.03-14.97-.09-22.45-.08-10.7,.02-16.9,6.21-17,16.98-.05,5.86-.1,11.73,.03,17.59,.06,2.52-.3,3.76-3.36,3.82-5.41,.11-8.08,3.19-8.17,8.63-.07,4.24-.04,8.48,0,12.72,.05,6.22,2.49,8.83,8.73,9.15,1.77,.09,2.8,.36,2.78,2.46-.12,12.47-.17,24.94-.24,37.41-14.96-7.53-28.3-17.38-40.38-28.88-29.7-28.26-48.9-62.47-55.82-102.92C-6.88,171.46,7.3,119.34,45.31,73.87c10.64-12.73,23.08-23.52,36.76-32.88,1.6-1.09,3.01-2.69,5.2-2.71,.41,1.18-.7,1.47-1.26,1.99-25.89,23.67-43.17,52.68-53.46,86.03-1.8,5.83-.52,7.96,5.47,9.28Z"/><path class="cls-5" d="M99.29,361.57c.07-12.47,.11-24.94,.24-37.41,.02-2.09-1.01-2.37-2.78-2.46-6.24-.31-8.69-2.93-8.73-9.15-.03-4.24-.06-8.48,0-12.72,.09-5.44,2.76-8.52,8.17-8.63,3.06-.06,3.42-1.31,3.36-3.82-.13-5.86-.08-11.73-.03-17.59,.09-10.77,6.29-16.96,17-16.98,7.48-.01,14.97,.05,22.45,.08,0,.43-.01,.85-.02,1.28-7.24,3.01-9.68,8.92-9.65,16.21,.01,3.93,1.55,5.37,5.46,5.52,1.12,.04,2.25,.01,3.37,.01,37.33,0,74.65,.01,111.98-.02,2.85,0,5.59,.23,7.54,2.49,1.89,2.19,2.64,4.78,1.48,7.66-1.24,3.07-3.36,4.91-6.79,4.93-8.36,.05-16.73,.08-25.09,.12-4.42-7.86-10.87-8.78-17.28-2.5-.88,.87-1.84,1.67-2.76,2.5-13.02,0-26.04,0-39.06,0-.92-.83-1.88-1.62-2.76-2.49-6.41-6.29-12.84-5.37-17.3,2.5-8.18-.15-10.75,2.36-10.76,10.51,0,4.12-.06,8.24,.03,12.36,.11,4.93,2.79,7.68,7.69,7.71,8.74,.06,17.48-.03,26.22-.05,2.84,1.56,3.08,3.06,.45,5.34-3.8,3.29-7.26,6.96-10.86,10.47-8.58-.03-17.16-.09-25.74-.08-4.44,0-5.78,1.29-5.82,5.76-.09,10.44-.08,20.89-.11,31.33-10.41-3.25-20.44-7.38-29.9-12.85Zm14.86-1.64c4.37,0,7.52-3.12,7.52-7.49,0-4.18-3.33-7.48-7.6-7.53-4.3-.05-7.44,3.14-7.42,7.56,.02,4.44,3.05,7.46,7.5,7.47Zm-.18-60.85c-4.42,.07-7.37,3.14-7.32,7.62,.05,4.25,3.4,7.5,7.65,7.41,4.13-.09,7.4-3.53,7.38-7.78-.02-4.27-3.27-7.33-7.71-7.26Z"/><path class="cls-10" d="M88.73,37.47c-.31,.62-.56,1.36-1.51,.84,.19-.85,.7-1.1,1.51-.84Z"/><path class="cls-10" d="M89.43,36.51c.09,.58-.17,.91-.75,1.01-.09-.59,.31-.81,.75-1.01Z"/><path class="cls-2" d="M207.21,291.08c.92-.83,1.87-1.63,2.76-2.5,6.41-6.28,12.86-5.36,17.28,2.5,.87,4.57-.82,8.08-4.1,11.27-6.47,6.29-12.71,12.82-19.05,19.25-2.83,1.55-3.09,3.04-.45,5.32,3.8,3.29,7.26,6.97,10.86,10.48,3.12,3.21,6.25,6.42,9.36,9.64,4.45,4.62,4.79,10.33,.86,14.28-4,4.03-9.62,3.75-14.26-.83-6.92-6.84-13.83-13.69-20.61-20.67-1.72-1.77-2.67-1.75-4.38,.01-6.95,7.15-14.03,14.19-21.14,21.19-3.41,3.35-7.47,3.97-11.3,2.03-3.55-1.8-5.57-5.59-5.1-9.6,.29-2.47,1.58-4.41,3.27-6.14,3.22-3.29,6.42-6.6,9.63-9.9,3.61-3.51,7.07-7.18,10.86-10.47,2.63-2.28,2.39-3.78-.45-5.34-6.34-6.43-12.58-12.97-19.06-19.26-3.29-3.19-4.99-6.69-4.12-11.27,4.46-7.87,10.89-8.8,17.3-2.5,.88,.87,1.84,1.66,2.76,2.49,6.01,6.1,12.05,12.19,18.02,18.33,1.13,1.16,1.88,1.17,3.02,0,5.97-6.15,12.01-12.23,18.02-18.33Z"/><path class="cls-5" d="M214.51,337.41c-3.6-3.51-7.07-7.19-10.86-10.48-2.63-2.28-2.38-3.77,.45-5.32,15.1,.03,30.21,.06,45.31,.08,1.75,0,3.5-.05,5.16,.65,3.16,1.34,5.04,3.63,5.07,7.15,.03,3.39-1.79,5.61-4.8,6.91-1.86,.81-3.85,.93-5.87,.93-11.48,0-22.97,.05-34.45,.08Z"/><path class="cls-5" d="M252.28,359.94c-4.49,.06-7.59-2.88-7.68-7.3-.09-4.44,2.97-7.71,7.25-7.74,4.28-.03,7.7,3.2,7.8,7.37,.1,4.34-3.03,7.61-7.36,7.67Z"/><path class="cls-5" d="M252.06,299.08c4.38-.01,7.55,3.09,7.58,7.43,.03,4.12-3.44,7.63-7.54,7.62-4.28,0-7.51-3.27-7.5-7.56,0-4.47,3-7.47,7.46-7.49Z"/><path class="cls-5" d="M138.95,254.16c0-.43,.01-.85,.02-1.28,5.22-.1,10.43-.2,15.64-.31,6.38-.03,12.77-.07,19.15-.1,2.09,.03,4.18,.05,6.27,.08,5.09,0,10.18,0,15.27,0,2.36-.02,4.72-.04,7.08-.05,8.34,.03,16.67,.07,25.01,.1,10.68,.02,21.37,.03,32.05,.09,1.58,0,3.26-.39,4.67,.73-39.63,0-79.27,0-118.9-.02-2.14,0-4.22,.16-6.27,.76Z"/><path class="cls-10" d="M96.97,155.88c-.38,1.71,.85,2.81,1.61,4.04,7.37,11.88,14.8,23.72,22.15,35.62,.74,1.19,2.01,2.31,1.37,4.28-.65-.56-1.22-1-1.71-1.49-21.67-21.6-43.33-43.2-64.99-64.8-.44-.44-.81-.95-1.21-1.42,15.14-.3,26.97,6.3,36.51,17.6,1.68,1.99,3.04,4.25,5.35,5.63,.31,.21,.62,.42,.93,.62l-.02-.06Z"/><path class="cls-11" d="M97,155.94c-.31-.21-.62-.42-.93-.62,.47-.03,.85,.07,.93,.62Z"/><path class="cls-10" d="M322.57,132.08c-4.88,5.18-9.71,10.4-14.64,15.53-20.06,20.9-40.15,41.78-60.24,62.66-.68,.71-1.5,1.29-2.26,1.93l-.04-.04c2.03-5.94,5.98-10.8,9.15-16.09,7.66-12.81,15.56-25.47,23.35-38.19,.52-.84,.91-1.75,1.37-2.63,1.89-1.28,3.24-3.06,4.67-4.8,9.98-12.18,22.42-19.27,38.64-18.35Z"/><path class="cls-3" d="M245.43,212.2c-.11,.08-.23,.17-.34,.25,.1-.1,.2-.19,.3-.29,0,0,.04,.04,.04,.04Z"/><path class="cls-6" d="M148.09,291.08c-.86,4.58,.84,8.08,4.12,11.27,6.48,6.29,12.72,12.82,19.06,19.26-8.74,.03-17.48,.11-26.22,.05-4.9-.03-7.59-2.78-7.69-7.71-.09-4.12-.03-8.24-.03-12.36,0-8.15,2.58-10.66,10.76-10.51Z"/><path class="cls-6" d="M207.21,291.08c-6.01,6.1-12.05,12.19-18.02,18.33-1.13,1.17-1.89,1.16-3.02,0-5.97-6.15-12.01-12.23-18.02-18.33,13.02,0,26.04,0,39.06,0Z"/><path class="cls-6" d="M114.15,359.93c-4.45,0-7.48-3.02-7.5-7.47-.02-4.42,3.12-7.61,7.42-7.56,4.28,.05,7.61,3.35,7.6,7.53,0,4.37-3.15,7.5-7.52,7.49Z"/><path class="cls-6" d="M113.97,299.09c4.44-.07,7.69,3,7.71,7.26,.02,4.24-3.25,7.69-7.38,7.78-4.25,.09-7.6-3.16-7.65-7.41-.05-4.48,2.91-7.56,7.32-7.62Z"/></svg>