<?xml version="1.0" encoding="UTF-8"?><svg id="Ebene_1" xmlns="http://www.w3.org/2000/svg" viewBox="0 0 634 634"><defs><style>.cls-1{fill:#5e657a;}.cls-2{fill:#363e59;}.cls-3{opacity:.21;}.cls-4{fill:#7e8495;}</style></defs><path class="cls-2" d="M384,600.3h0c0-17.51,14.19-31.7,31.7-31.7h31.6c17.51,0,31.7-14.19,31.7-31.7h0c0-17.51,14.19-31.7,31.7-31.7h8.6c17.51,0,31.7-14.19,31.7-31.7h0c0-17.51-14.19-31.7-31.7-31.7h-173.6c-17.51,0-31.7-14.19-31.7-31.7h0c0-17.51,14.19-31.7,31.7-31.7h136.6c17.51,0,31.7-14.19,31.7-31.7h0c0-17.51-14.19-31.7-31.7-31.7h-20.6c-17.51,0-31.7-14.19-31.7-31.7h0c0-17.51,14.19-31.7,31.7-31.7h103.6c17.51,0,31.7-14.19,31.7-31.7h0c0-17.51-14.19-31.7-31.7-31.7H195.7c-17.51,0-31.7-14.19-31.7-31.7h0c0-17.51,14.19-31.7,31.7-31.7h202.6c17.51,0,31.7-14.19,31.7-31.7h0c0-17.51-14.19-31.7-31.7-31.7h-61.6c-17.51,0-31.7-14.19-31.7-31.7h0c0-13.5,8.44-25.02,20.33-29.59-2.77-.07-5.54-.11-8.33-.11C166.69,0,40.82,104.61,8.22,245H74.5c16.29,0,29.5,13.21,29.5,29.5v4.4c0,16.29,13.21,29.5,29.5,29.5h123c16.29,0,29.5,13.21,29.5,29.5v4.4c0,16.29-13.21,29.5-29.5,29.5h-114c-16.29,0-29.5,13.21-29.5,29.5v4.4c0,16.29,13.21,29.5,29.5,29.5h12c16.29,0,29.5,13.21,29.5,29.5v4.4c0,16.29,13.21,29.5,29.5,29.5h92c16.29,0,29.5,13.21,29.5,29.5v4.4c0,16.29-13.21,29.5-29.5,29.5h-30c-16.29,0-29.5,13.21-29.5,29.5v4.4c0,11.32-6.38,21.14-15.73,26.09,27.56,7.82,56.66,12.01,86.73,12.01,26.92,0,53.06-3.37,78.02-9.69-6.74-5.81-11.02-14.41-11.02-24.01Z"/><path class="cls-4" d="M325.33,.11c-11.89,4.57-20.33,16.09-20.33,29.59h0c0,17.51,14.19,31.7,31.7,31.7h61.6c17.51,0,31.7,14.19,31.7,31.7h0c0,17.51-14.19,31.7-31.7,31.7H195.7c-17.51,0-31.7,14.19-31.7,31.7h0c0,17.51,14.19,31.7,31.7,31.7h369.6c17.51,0,31.7,14.19,31.7,31.7h0c0,17.51-14.19,31.7-31.7,31.7h-103.6c-17.51,0-31.7,14.19-31.7,31.7h0c0,17.51,14.19,31.7,31.7,31.7h20.6c17.51,0,31.7,14.19,31.7,31.7h0c0,17.51-14.19,31.7-31.7,31.7h-136.6c-17.51,0-31.7,14.19-31.7,31.7h0c0,17.51,14.19,31.7,31.7,31.7h173.6c17.51,0,31.7,14.19,31.7,31.7h0c0,17.51-14.19,31.7-31.7,31.7h-8.6c-17.51,0-31.7,14.19-31.7,31.7h0c0,17.51-14.19,31.7-31.7,31.7h-31.6c-17.51,0-31.7,14.19-31.7,31.7h0c0,9.6,4.28,18.2,11.02,24.01,137.35-34.76,238.98-159.16,238.98-307.31C634,144.71,496.55,4.53,325.33,.11Z"/><path class="cls-1" d="M246,595.9v-4.4c0-16.29,13.21-29.5,29.5-29.5h30c16.29,0,29.5-13.21,29.5-29.5v-4.4c0-16.29-13.21-29.5-29.5-29.5h-92c-16.29,0-29.5-13.21-29.5-29.5v-4.4c0-16.29-13.21-29.5-29.5-29.5h-12c-16.29,0-29.5-13.21-29.5-29.5v-4.4c0-16.29,13.21-29.5,29.5-29.5h114c16.29,0,29.5-13.21,29.5-29.5v-4.4c0-16.29-13.21-29.5-29.5-29.5h-123c-16.29,0-29.5-13.21-29.5-29.5v-4.4c0-16.29-13.21-29.5-29.5-29.5H8.22C2.84,268.13,0,292.23,0,317c0,145,97.36,267.27,230.27,304.99,9.35-4.95,15.73-14.77,15.73-26.09Z"/><path class="cls-3" d="M410,550c-175.07,0-317-141.93-317-317,0-70.67,23.14-135.94,62.24-188.65C62.29,99.61,0,201.02,0,317c0,175.07,141.93,317,317,317,104.4,0,197-50.48,254.76-128.35-47.36,28.16-102.67,44.35-161.76,44.35Z"/></svg>