<?xml version="1.0" encoding="UTF-8"?><svg id="Ebene_2" xmlns="http://www.w3.org/2000/svg" xmlns:xlink="http://www.w3.org/1999/xlink" viewBox="0 0 539 539"><defs><style>.cls-1{fill:#c17f70;}.cls-2{fill:#ecc1b6;}.cls-3{fill:#d99d8f;}.cls-4{clip-path:url(#clippath);}</style><clipPath id="clippath"><circle class="cls-3" cx="269.5" cy="269.5" r="269.5"/></clipPath></defs><g id="Ebene_1-2"><g><circle class="cls-3" cx="269.5" cy="269.5" r="269.5"/><g class="cls-4"><path class="cls-2" d="M700,140.5h0c0-10.22-8.28-18.5-18.5-18.5h-92c-10.22,0-18.5-8.28-18.5-18.5h0c0-10.22,8.28-18.5,18.5-18.5h70c10.22,0,18.5-8.28,18.5-18.5h0c0-10.22-8.28-18.5-18.5-18.5h-22c-10.22,0-18.5-8.28-18.5-18.5h0c0-10.22-8.28-18.5-18.5-18.5h-236c-10.22,0-18.5,8.28-18.5,18.5h0c0,10.22,8.28,18.5,18.5,18.5h22c10.22,0,18.5,8.28,18.5,18.5h0c0,10.22-8.28,18.5-18.5,18.5h-70c-10.22,0-18.5,8.28-18.5,18.5h0c0,10.22,8.28,18.5,18.5,18.5h92c10.22,0,18.5,8.28,18.5,18.5h0c0,10.22-8.28,18.5-18.5,18.5h-31c-10.22,0-18.5,8.28-18.5,18.5h0c0,10.22,8.28,18.5,18.5,18.5h4c10.22,0,18.5,8.28,18.5,18.5h0c0,10.22-8.28,18.5-18.5,18.5h-94c-10.22,0-18.5,8.28-18.5,18.5h0c0,10.22,8.28,18.5,18.5,18.5h53c10.22,0,18.5,8.28,18.5,18.5h0c0,10.22-8.28,18.5-18.5,18.5h-14c-10.22,0-18.5,8.28-18.5,18.5h0c0,10.22,8.28,18.5,18.5,18.5h82c10.22,0,18.5,8.28,18.5,18.5h0c0,10.22-8.28,18.5-18.5,18.5h-10c-10.22,0-18.5,8.28-18.5,18.5h0c0,10.22-8.28,18.5-18.5,18.5h-30c-10.22,0-18.5,8.28-18.5,18.5h0c0,10.22,8.28,18.5,18.5,18.5h50c10.22,0,18.5,8.28,18.5,18.5h0c0,10.22-8.28,18.5-18.5,18.5h-31c-10.22,0-18.5,8.28-18.5,18.5h0c0,10.22,8.28,18.5,18.5,18.5h236c10.22,0,18.5-8.28,18.5-18.5h0c0-10.22,8.28-18.5,18.5-18.5h31c10.22,0,18.5-8.28,18.5-18.5h0c0-10.22-8.28-18.5-18.5-18.5h-50c-10.22,0-18.5-8.28-18.5-18.5h0c0-10.22,8.28-18.5,18.5-18.5h30c10.22,0,18.5-8.28,18.5-18.5h0c0-10.22,8.28-18.5,18.5-18.5h10c10.22,0,18.5-8.28,18.5-18.5h0c0-10.22-8.28-18.5-18.5-18.5h-82c-10.22,0-18.5-8.28-18.5-18.5h0c0-10.22,8.28-18.5,18.5-18.5h14c10.22,0,18.5-8.28,18.5-18.5h0c0-10.22-8.28-18.5-18.5-18.5h-53c-10.22,0-18.5-8.28-18.5-18.5h0c0-10.22,8.28-18.5,18.5-18.5h94c10.22,0,18.5-8.28,18.5-18.5h0c0-10.22-8.28-18.5-18.5-18.5h-4c-10.22,0-18.5-8.28-18.5-18.5h0c0-10.22,8.28-18.5,18.5-18.5h31c10.22,0,18.5-8.28,18.5-18.5Z"/><path class="cls-1" d="M206,29.5h0c0-10.22-8.28-18.5-18.5-18.5H95.5c-10.22,0-18.5-8.28-18.5-18.5h0c0-10.22,8.28-18.5,18.5-18.5h70c10.22,0,18.5-8.28,18.5-18.5h0c0-10.22-8.28-18.5-18.5-18.5h-22c-10.22,0-18.5-8.28-18.5-18.5h0c0-10.22-8.28-18.5-18.5-18.5H-129.5c-10.22,0-18.5,8.28-18.5,18.5h0c0,10.22,8.28,18.5,18.5,18.5h22c10.22,0,18.5,8.28,18.5,18.5h0c0,10.22-8.28,18.5-18.5,18.5h-70c-10.22,0-18.5,8.28-18.5,18.5h0c0,10.22,8.28,18.5,18.5,18.5H-85.5c10.22,0,18.5,8.28,18.5,18.5h0c0,10.22-8.28,18.5-18.5,18.5h-31c-10.22,0-18.5,8.28-18.5,18.5h0c0,10.22,8.28,18.5,18.5,18.5h4c10.22,0,18.5,8.28,18.5,18.5h0c0,10.22-8.28,18.5-18.5,18.5h-94c-10.22,0-18.5,8.28-18.5,18.5h0c0,10.22,8.28,18.5,18.5,18.5h53c10.22,0,18.5,8.28,18.5,18.5h0c0,10.22-8.28,18.5-18.5,18.5h-14c-10.22,0-18.5,8.28-18.5,18.5h0c0,10.22,8.28,18.5,18.5,18.5H-85.5c10.22,0,18.5,8.28,18.5,18.5h0c0,10.22-8.28,18.5-18.5,18.5h-10c-10.22,0-18.5,8.28-18.5,18.5h0c0,10.22-8.28,18.5-18.5,18.5h-30c-10.22,0-18.5,8.28-18.5,18.5h0c0,10.22,8.28,18.5,18.5,18.5h50c10.22,0,18.5,8.28,18.5,18.5h0c0,10.22-8.28,18.5-18.5,18.5h-31c-10.22,0-18.5,8.28-18.5,18.5h0c0,10.22,8.28,18.5,18.5,18.5H92.5c10.22,0,18.5-8.28,18.5-18.5h0c0-10.22,8.28-18.5,18.5-18.5h31c10.22,0,18.5-8.28,18.5-18.5h0c0-10.22-8.28-18.5-18.5-18.5h-50c-10.22,0-18.5-8.28-18.5-18.5h0c0-10.22,8.28-18.5,18.5-18.5h30c10.22,0,18.5-8.28,18.5-18.5h0c0-10.22,8.28-18.5,18.5-18.5h10c10.22,0,18.5-8.28,18.5-18.5h0c0-10.22-8.28-18.5-18.5-18.5H105.5c-10.22,0-18.5-8.28-18.5-18.5h0c0-10.22,8.28-18.5,18.5-18.5h14c10.22,0,18.5-8.28,18.5-18.5h0c0-10.22-8.28-18.5-18.5-18.5h-53c-10.22,0-18.5-8.28-18.5-18.5h0c0-10.22,8.28-18.5,18.5-18.5h94c10.22,0,18.5-8.28,18.5-18.5h0c0-10.22-8.28-18.5-18.5-18.5h-4c-10.22,0-18.5-8.28-18.5-18.5h0c0-10.22,8.28-18.5,18.5-18.5h31c10.22,0,18.5-8.28,18.5-18.5Z"/></g></g></g></svg>