<?xml version="1.0" encoding="UTF-8"?><svg id="Ebene_2" xmlns="http://www.w3.org/2000/svg" xmlns:xlink="http://www.w3.org/1999/xlink" viewBox="0 0 679 679"><defs><style>.cls-1{fill:#99737a;}.cls-2{fill:#53353b;}.cls-3{fill:#603c43;}.cls-4{fill:#a66a75;}.cls-5{clip-path:url(#clippath);}.cls-6{fill:#40282d;}</style><clipPath id="clippath"><circle class="cls-4" cx="339.5" cy="339.5" r="339.5"/></clipPath></defs><g id="Ebene_1-2"><g><circle class="cls-4" cx="339.5" cy="339.5" r="339.5"/><g class="cls-5"><path class="cls-2" d="M221.33,19.5h0c0,10.77,9.13,19.5,20.4,19.5h36.87c11.27,0,20.4,8.73,20.4,19.5h0c0,10.77-9.13,19.5-20.4,19.5h-83.2c-11.27,0-20.4,8.73-20.4,19.5h0c0,10.77,9.13,19.5,20.4,19.5h47.77c11.27,0,20.4,8.73,20.4,19.5h0c0,10.77-9.13,19.5-20.4,19.5h-1.44c-11.27,0-20.4,8.73-20.4,19.5h0c0,10.77,9.13,19.5,20.4,19.5h53.22c11.27,0,20.4,8.73,20.4,19.5h0c0,10.77-9.13,19.5-20.4,19.5h-72.3c-11.27,0-20.4,8.73-20.4,19.5h0c0,10.77,9.13,19.5,20.4,19.5h35.51c11.27,0,20.4,8.73,20.4,19.5h0c0,10.77-9.13,19.5-20.4,19.5h-62.76c-11.27,0-20.4,8.73-20.4,19.5h0c0,10.77,9.13,19.5,20.4,19.5h114.54c11.27,0,20.4,8.73,20.4,19.5h0c0,10.77-9.13,19.5-20.4,19.5h-68.21c-11.27,0-20.4,8.73-20.4,19.5h0c0,10.77,9.13,19.5,20.4,19.5h36.87c11.27,0,20.4,8.73,20.4,19.5h0c0,10.77-9.13,19.5-20.4,19.5h-66.85c-11.27,0-20.4,8.73-20.4,19.5h0c0,10.77,9.13,19.5,20.4,19.5h118.62c11.27,0,20.4,8.73,20.4,19.5h0c0,10.77-9.13,19.5-20.4,19.5H195.4c-11.27,0-20.4,8.73-20.4,19.5h0c0,10.77,9.13,19.5,20.4,19.5h72.3c11.27,0,20.4,8.73,20.4,19.5h0c0,10.77-9.13,19.5-20.4,19.5h-45.05c-11.27,0-20.4,8.73-20.4,19.5h0c0,10.77,9.13,19.5,20.4,19.5h226.95c11.27,0,20.4-8.73,20.4-19.5V19.5C470,8.73,460.87,0,449.6,0H241.73C230.46,0,221.33,8.73,221.33,19.5Z"/><path class="cls-3" d="M312,526.5h0c0-10.77,8.24-19.5,18.39-19.5h106.96c10.16,0,18.39-8.73,18.39-19.5h0c0-10.77-8.24-19.5-18.39-19.5h-60.28c-10.16,0-18.39-8.73-18.39-19.5h0c0-10.77,8.24-19.5,18.39-19.5h33.25c10.16,0,18.39-8.73,18.39-19.5h0c0-10.77-8.24-19.5-18.39-19.5h-61.5c-10.16,0-18.39-8.73-18.39-19.5h0c0-10.77,8.24-19.5,18.39-19.5h103.28c10.16,0,18.39-8.73,18.39-19.5h0c0-10.77-8.24-19.5-18.39-19.5h-56.59c-10.16,0-18.39-8.73-18.39-19.5h0c0-10.77,8.24-19.5,18.39-19.5h32.02c10.16,0,18.39-8.73,18.39-19.5h0c0-10.77-8.24-19.5-18.39-19.5h-65.19c-10.16,0-18.39-8.73-18.39-19.5h0c0-10.77,8.24-19.5,18.39-19.5h47.99c10.16,0,18.39-8.73,18.39-19.5h0c0-10.77-8.24-19.5-18.39-19.5h-1.3c-10.16,0-18.39-8.73-18.39-19.5h0c0-10.77,8.24-19.5,18.39-19.5h43.07c10.16,0,18.39-8.73,18.39-19.5h0c0-10.77-8.24-19.5-18.39-19.5h-75.02c-10.16,0-18.39-8.73-18.39-19.5h0c0-10.77,8.24-19.5,18.39-19.5h33.25c10.16,0,18.39-8.73,18.39-19.5h0c0-10.77,8.24-19.5,18.39-19.5h112.49c10.16,0,18.39,8.73,18.39,19.5V643.5c0,10.77-8.24,19.5-18.39,19.5h-95.29c-10.16,0-18.39-8.73-18.39-19.5h0c0-10.77-8.24-19.5-18.39-19.5h-40.62c-10.16,0-18.39-8.73-18.39-19.5h0c0-10.77,8.24-19.5,18.39-19.5h65.19c10.16,0,18.39-8.73,18.39-19.5h0c0-10.77-8.24-19.5-18.39-19.5h-121.71c-10.16,0-18.39-8.73-18.39-19.5Z"/><path class="cls-1" d="M406,526.5h0c0-10.77,8.73-19.5,19.5-19.5h113.4c10.77,0,19.5-8.73,19.5-19.5h0c0-10.77-8.73-19.5-19.5-19.5h-63.9c-10.77,0-19.5-8.73-19.5-19.5h0c0-10.77,8.73-19.5,19.5-19.5h35.24c10.77,0,19.5-8.73,19.5-19.5h0c0-10.77-8.73-19.5-19.5-19.5h-65.2c-10.77,0-19.5-8.73-19.5-19.5h0c0-10.77,8.73-19.5,19.5-19.5h109.49c10.77,0,19.5-8.73,19.5-19.5h0c0-10.77-8.73-19.5-19.5-19.5h-59.99c-10.77,0-19.5-8.73-19.5-19.5h0c0-10.77,8.73-19.5,19.5-19.5h33.94c10.77,0,19.5-8.73,19.5-19.5h0c0-10.77-8.73-19.5-19.5-19.5h-69.11c-10.77,0-19.5-8.73-19.5-19.5h0c0-10.77,8.73-19.5,19.5-19.5h50.88c10.77,0,19.5-8.73,19.5-19.5h0c0-10.77-8.73-19.5-19.5-19.5h-1.38c-10.77,0-19.5-8.73-19.5-19.5h0c0-10.77,8.73-19.5,19.5-19.5h45.67c10.77,0,19.5-8.73,19.5-19.5h0c0-10.77-8.73-19.5-19.5-19.5h-79.53c-10.77,0-19.5-8.73-19.5-19.5h0c0-10.77,8.73-19.5,19.5-19.5h35.24c10.77,0,19.5-8.73,19.5-19.5h0C529.74,8.73,538.47,0,549.24,0h119.26c10.77,0,19.5,8.73,19.5,19.5V643.5c0,10.77-8.73,19.5-19.5,19.5h-101.02c-10.77,0-19.5-8.73-19.5-19.5h0c0-10.77-8.73-19.5-19.5-19.5h-43.06c-10.77,0-19.5-8.73-19.5-19.5h0c0-10.77,8.73-19.5,19.5-19.5h69.11c10.77,0,19.5-8.73,19.5-19.5h0c0-10.77-8.73-19.5-19.5-19.5h-129.03c-10.77,0-19.5-8.73-19.5-19.5Z"/><path class="cls-6" d="M552.24-58.5h0c0,10.77,6.75,19.5,15.07,19.5h27.25c8.33,0,15.07,8.73,15.07,19.5h0C609.63-8.73,602.88,0,594.56,0h-61.48C524.75,0,518,8.73,518,19.5h0c0,10.77,6.75,19.5,15.07,19.5h35.3c8.33,0,15.07,8.73,15.07,19.5h0c0,10.77-6.75,19.5-15.07,19.5h-1.07c-8.33,0-15.07,8.73-15.07,19.5h0c0,10.77,6.75,19.5,15.07,19.5h39.33c8.33,0,15.07,8.73,15.07,19.5h0c0,10.77-6.75,19.5-15.07,19.5h-53.43c-8.33,0-15.07,8.73-15.07,19.5h0c0,10.77,6.75,19.5,15.07,19.5h26.24c8.33,0,15.07,8.73,15.07,19.5h0c0,10.77-6.75,19.5-15.07,19.5h-46.38c-8.33,0-15.07,8.73-15.07,19.5h0c0,10.77,6.75,19.5,15.07,19.5h84.64c8.33,0,15.07,8.73,15.07,19.5h0c0,10.77-6.75,19.5-15.07,19.5h-50.41c-8.33,0-15.07,8.73-15.07,19.5h0c0,10.77,6.75,19.5,15.07,19.5h27.25c8.33,0,15.07,8.73,15.07,19.5h0c0,10.77-6.75,19.5-15.07,19.5h-49.4c-8.33,0-15.07,8.73-15.07,19.5h0c0,10.77,6.75,19.5,15.07,19.5h87.66c8.33,0,15.07,8.73,15.07,19.5h0c0,10.77-6.75,19.5-15.07,19.5h-99.74c-8.33,0-15.07,8.73-15.07,19.5h0c0,10.77,6.75,19.5,15.07,19.5h53.43c8.33,0,15.07,8.73,15.07,19.5h0c0,10.77-6.75,19.5-15.07,19.5h-33.29c-8.33,0-15.07,8.73-15.07,19.5h0c0,10.77,6.75,19.5,15.07,19.5h167.71c8.33,0,15.07-8.73,15.07-19.5V-58.5c0-10.77-6.75-19.5-15.07-19.5h-153.62c-8.33,0-15.07,8.73-15.07,19.5Z"/></g></g></g></svg>